<svg width="38" height="39" viewBox="0 0 38 39" fill="none" xmlns="http://www.w3.org/2000/svg">
<path d="M31.7264 16.163C30.0902 15.2721 27.8909 14.6311 25.4696 14.3297V13.2507C25.4696 11.4689 24.0612 9.85469 21.5003 8.70359C19.1716 7.65393 16.0903 7.07617 12.8266 7.07617C9.56294 7.07617 6.48158 7.65393 4.15291 8.70359C1.59197 9.85469 0.183594 11.4689 0.183594 13.2507V19.1311C0.183594 20.9129 1.59197 22.5271 4.15291 23.6782C5.69506 24.3721 7.56505 24.8543 9.59234 25.1086V26.1877C9.59234 27.9695 11.0007 29.5837 13.5617 30.7348C15.8903 31.7844 18.9717 32.3622 22.2354 32.3622C25.499 32.3622 28.5804 31.7844 30.909 30.7348C33.4656 29.5837 34.8784 27.9695 34.8784 26.1877V20.3072C34.8784 18.7416 33.7596 17.27 31.7264 16.163ZM30.8826 17.7125C32.3218 18.496 33.1142 19.4252 33.1142 20.3072C33.1142 22.3933 28.6465 24.7176 22.2354 24.7176C21.1929 24.7182 20.1514 24.6524 19.1172 24.5206C19.9322 24.3018 20.7289 24.0202 21.5003 23.6782C24.0568 22.5271 25.4696 20.9129 25.4696 19.1311V16.1071C27.5866 16.3908 29.483 16.9495 30.8826 17.7125ZM14.6143 23.4797C14.038 23.5194 13.4382 23.5415 12.8266 23.5415C12.0474 23.5415 11.2977 23.5062 10.5803 23.443C10.5622 23.4413 10.544 23.4413 10.5259 23.443C9.99957 23.3945 9.49679 23.3298 9.0043 23.2519V19.1488C10.2699 19.3342 11.5475 19.4266 12.8266 19.4252C14.1057 19.4266 15.3833 19.3342 16.6489 19.1488V23.2475C16.0109 23.3489 15.339 23.4268 14.6363 23.4768L14.6143 23.4797ZM23.7055 16.4688V19.1311C23.7055 20.5336 21.6841 22.042 18.413 22.8814V18.8151C19.4724 18.5759 20.5063 18.2352 21.5003 17.7977C22.291 17.4544 23.0325 17.0075 23.7055 16.4688ZM12.8266 8.84031C19.2378 8.84031 23.7055 11.1646 23.7055 13.2507C23.7055 15.3368 19.2378 17.661 12.8266 17.661C6.41542 17.661 1.94773 15.3368 1.94773 13.2507C1.94773 11.1646 6.41542 8.84031 12.8266 8.84031ZM1.94773 19.1311V16.4688C2.62103 17.0054 3.36256 17.4503 4.15291 17.7919C5.14693 18.2293 6.18079 18.57 7.24016 18.8092V22.8755C3.96915 22.042 1.94773 20.5336 1.94773 19.1311ZM11.3565 26.1877V25.2645C11.8416 25.2909 12.3312 25.3056 12.8266 25.3056C13.4058 25.3056 13.9772 25.2875 14.5408 25.2512C15.2303 25.5001 15.9343 25.7068 16.6489 25.8702V29.938C13.3779 29.0985 11.3565 27.5902 11.3565 26.1877ZM18.413 30.304V26.2024C19.6786 26.3888 20.9561 26.4822 22.2354 26.4817C23.5145 26.4831 24.792 26.3908 26.0577 26.2053V30.304C23.5245 30.6961 20.9462 30.6961 18.413 30.304ZM27.8218 29.938V25.8716C28.8812 25.6325 29.915 25.2918 30.909 24.8543C31.6994 24.5128 32.4409 24.0678 33.1142 23.5312V26.1877C33.1142 27.5902 31.0928 29.0985 27.8218 29.938Z" fill="white"/>
</svg>
