<svg width="54" height="54" viewBox="0 0 54 54" fill="none" xmlns="http://www.w3.org/2000/svg">
<path d="M44.9329 22.1356C42.6021 20.8665 39.4692 19.9534 36.02 19.5241V17.987C36.02 15.4488 34.0138 13.1494 30.3657 11.5097C27.0485 10.0144 22.6591 9.19141 18.01 9.19141C13.3609 9.19141 8.9715 10.0144 5.65431 11.5097C2.00623 13.1494 0 15.4488 0 17.987V26.3637C0 28.9019 2.00623 31.2013 5.65431 32.8411C7.85111 33.8295 10.5149 34.5164 13.4028 34.8787V36.4158C13.4028 38.954 15.409 41.2534 19.0571 42.8932C22.3743 44.3884 26.7637 45.2114 31.4128 45.2114C36.0619 45.2114 40.4513 44.3884 43.7685 42.8932C47.4103 41.2534 49.4228 38.954 49.4228 36.4158V28.0391C49.4228 25.8088 47.8291 23.7125 44.9329 22.1356ZM43.7308 24.3429C45.781 25.4591 46.9098 26.7826 46.9098 28.0391C46.9098 31.0107 40.5456 34.3217 31.4128 34.3217C29.9278 34.3225 28.4442 34.2288 26.971 34.041C28.1319 33.7294 29.2669 33.3282 30.3657 32.8411C34.0075 31.2013 36.02 28.9019 36.02 26.3637V22.056C39.0357 22.4602 41.7372 23.256 43.7308 24.3429ZM20.5565 32.5583C19.7356 32.6149 18.8812 32.6463 18.01 32.6463C16.9001 32.6463 15.8321 32.596 14.8101 32.506C14.7843 32.5036 14.7584 32.5036 14.7326 32.506C13.9829 32.4369 13.2667 32.3447 12.5651 32.2338V26.3889C14.368 26.653 16.1879 26.7846 18.01 26.7826C19.8322 26.7846 21.652 26.653 23.4549 26.3889V32.2275C22.546 32.372 21.589 32.483 20.588 32.5542L20.5565 32.5583ZM33.507 22.5712V26.3637C33.507 28.3616 30.6275 30.5102 25.9679 31.706V25.9135C27.477 25.5728 28.9497 25.0875 30.3657 24.4643C31.492 23.9752 32.5484 23.3386 33.507 22.5712ZM18.01 11.7044C27.1428 11.7044 33.507 15.0153 33.507 17.987C33.507 20.9586 27.1428 24.2696 18.01 24.2696C8.87726 24.2696 2.51302 20.9586 2.51302 17.987C2.51302 15.0153 8.87726 11.7044 18.01 11.7044ZM2.51302 26.3637V22.5712C3.47214 23.3356 4.52845 23.9694 5.65431 24.4559C7.07029 25.0791 8.54303 25.5644 10.0521 25.9051V31.6976C5.39253 30.5102 2.51302 28.3616 2.51302 26.3637ZM15.9158 36.4158V35.1007C16.6069 35.1384 17.3043 35.1593 18.01 35.1593C18.8351 35.1593 19.6491 35.1335 20.4518 35.0818C21.4341 35.4363 22.4369 35.7308 23.4549 35.9635V41.7581C18.7953 40.5623 15.9158 38.4137 15.9158 36.4158ZM25.9679 42.2796V36.4368C27.7707 36.7023 29.5906 36.8353 31.4128 36.8347C33.235 36.8367 35.0548 36.7051 36.8577 36.441V42.2796C33.2493 42.838 29.5764 42.838 25.9679 42.2796ZM39.3707 41.7581V35.9656C40.8798 35.6249 42.3525 35.1396 43.7685 34.5164C44.8944 34.0299 45.9507 33.3961 46.9098 32.6316V36.4158C46.9098 38.4137 44.0303 40.5623 39.3707 41.7581Z" fill="url(#paint0_linear_1049_427)"/>
<defs>
<linearGradient id="paint0_linear_1049_427" x1="24.3453" y1="63.7302" x2="-14.6492" y2="-14.7236" gradientUnits="userSpaceOnUse">
<stop offset="0.3" stop-color="#00D4DA"/>
<stop offset="1" stop-color="#0A3558"/>
</linearGradient>
</defs>
</svg>
