<svg width="55" height="55" viewBox="0 0 55 55" fill="none" xmlns="http://www.w3.org/2000/svg">
<rect width="55" height="55" rx="12" transform="matrix(1 0 0 -1 0 55)" fill="url(#paint0_linear_1056_387)"/>
<mask id="path-2-inside-1_1056_387" fill="white">
<path d="M39.056 37.068C39.9329 35.8925 40.5347 34.5351 40.8169 33.096C41.0991 31.6568 41.0546 30.1727 40.6866 28.753C40.3186 27.3334 39.6366 26.0145 38.6908 24.8937C37.745 23.773 36.5597 22.8788 35.2222 22.2774C34.9309 20.6012 34.2613 19.0134 33.2644 17.6348C32.2675 16.2561 30.9695 15.1229 29.4691 14.3211C27.9686 13.5193 26.3051 13.0701 24.605 13.0076C22.9049 12.9451 21.2129 13.2709 19.6576 13.9604C18.1023 14.6498 16.7246 15.6847 15.6292 16.9865C14.5338 18.2882 13.7495 19.8225 13.3358 21.4728C12.9222 23.1231 12.8902 24.846 13.2422 26.5105C13.5942 28.175 14.321 29.7374 15.3672 31.079L13.4223 33.01C13.2282 33.2068 13.0967 33.4567 13.0444 33.7281C12.9921 33.9996 13.0213 34.2804 13.1285 34.5353C13.2335 34.7908 13.4117 35.0095 13.6408 35.1639C13.8699 35.3183 14.1395 35.4014 14.4158 35.4028H22.3773C23.1702 37.0744 24.4203 38.4873 25.9828 39.4778C27.5453 40.4684 29.3564 40.9962 31.2064 41H39.6017C39.878 40.9986 40.1476 40.9155 40.3767 40.7611C40.6058 40.6067 40.7841 40.388 40.889 40.1324C40.9962 39.8776 41.0255 39.5968 40.9732 39.3253C40.9209 39.0539 40.7893 38.804 40.5952 38.6072L39.056 37.068ZM21.4119 31.2049C21.4138 31.6735 21.4512 32.1413 21.5238 32.6042H17.7879L18.2776 32.1285C18.4088 31.9984 18.5129 31.8436 18.5839 31.6731C18.6549 31.5026 18.6915 31.3197 18.6915 31.135C18.6915 30.9502 18.6549 30.7673 18.5839 30.5968C18.5129 30.4263 18.4088 30.2715 18.2776 30.1415C17.4934 29.3658 16.8718 28.4417 16.4489 27.4229C16.0261 26.4042 15.8106 25.3114 15.815 24.2084C15.815 21.9818 16.6995 19.8463 18.2739 18.2717C19.8484 16.6972 21.9837 15.8127 24.2103 15.8127C25.9477 15.8022 27.6447 16.3365 29.0627 17.3405C30.4807 18.3445 31.5485 19.7676 32.1159 21.4099C31.8081 21.4099 31.5142 21.4099 31.2064 21.4099C28.6087 21.4099 26.1175 22.4418 24.2806 24.2788C22.4438 26.1157 21.4119 28.6071 21.4119 31.2049ZM36.1597 38.2014L36.2296 38.2714H31.2064C29.588 38.2685 28.0206 37.7045 26.7713 36.6756C25.522 35.6467 24.6681 34.2164 24.355 32.6285C24.0419 31.0406 24.289 29.3932 25.0542 27.967C25.8193 26.5408 27.0553 25.424 28.5515 24.8069C30.0477 24.1898 31.7115 24.1106 33.2595 24.5827C34.8076 25.0547 36.1441 26.049 37.0414 27.396C37.9386 28.743 38.3412 30.3594 38.1804 31.9699C38.0196 33.5804 37.3055 35.0854 36.1597 36.2284C35.896 36.4868 35.7452 36.8388 35.7399 37.2079C35.7407 37.393 35.7782 37.5762 35.8502 37.7467C35.9223 37.9173 36.0275 38.0718 36.1597 38.2014Z"/>
</mask>
<path d="M39.056 37.068L35.6495 34.5267L33.4513 37.4735L36.0508 40.0731L39.056 37.068ZM35.2222 22.2774L31.035 23.0052L31.4213 25.2282L33.4792 26.1536L35.2222 22.2774ZM15.3672 31.079L18.3617 34.0949L21.0373 31.4384L18.7185 28.4653L15.3672 31.079ZM13.4223 33.01L10.4279 29.9941L10.4124 30.0095L10.397 30.025L13.4223 33.01ZM13.1285 34.5353L17.0597 32.9204L17.0531 32.9041L17.0462 32.8879L13.1285 34.5353ZM14.4158 35.4028L14.3946 39.6528L14.4052 39.6528H14.4158V35.4028ZM22.3773 35.4028L26.2173 33.5815L25.0653 31.1528H22.3773V35.4028ZM31.2064 41L31.1976 45.25H31.2064V41ZM39.6017 41V45.25H39.6124L39.623 45.2499L39.6017 41ZM40.889 40.1324L36.9713 38.4851L36.9645 38.5013L36.9578 38.5176L40.889 40.1324ZM40.5952 38.6072L43.6205 35.6222L43.6105 35.6121L43.6005 35.6021L40.5952 38.6072ZM21.4119 31.2049H17.1619V31.2136L17.1619 31.2224L21.4119 31.2049ZM21.5238 32.6042V36.8542H26.4922L25.7225 31.9458L21.5238 32.6042ZM17.7879 32.6042L14.8265 29.5559L7.31386 36.8542H17.7879V32.6042ZM18.2776 32.1285L21.239 35.1768L21.2549 35.1614L21.2706 35.1459L18.2776 32.1285ZM18.2776 30.1415L21.2706 27.124L21.2663 27.1198L18.2776 30.1415ZM15.815 24.2084L20.065 24.2255L20.065 24.217V24.2084H15.815ZM24.2103 15.8127V20.0627H24.2231L24.2359 20.0626L24.2103 15.8127ZM32.1159 21.4099V25.6599H38.0808L36.1329 20.022L32.1159 21.4099ZM31.2064 21.4099V17.1599V21.4099ZM36.2296 38.2714V42.5214H46.4896L39.2349 35.2662L36.2296 38.2714ZM31.2064 38.2714L31.1988 42.5214H31.2064V38.2714ZM36.1597 36.2284L39.1343 39.2639L39.1478 39.2506L39.1612 39.2373L36.1597 36.2284ZM35.7399 37.2079L31.4903 37.1474L31.4898 37.1865L31.4899 37.2256L35.7399 37.2079ZM39.056 37.068L42.4626 39.6092C43.72 37.9237 44.5828 35.9774 44.9875 33.9138L40.8169 33.096L36.6464 32.2781C36.4866 33.0928 36.1459 33.8613 35.6495 34.5267L39.056 37.068ZM40.8169 33.096L44.9875 33.9138C45.3921 31.8503 45.3283 29.7222 44.8007 27.6866L40.6866 28.753L36.5726 29.8195C36.7809 30.6231 36.8061 31.4634 36.6464 32.2781L40.8169 33.096ZM40.6866 28.753L44.8007 27.6866C44.273 25.6511 43.2951 23.76 41.9389 22.1529L38.6908 24.8937L35.4427 27.6346C35.9781 28.2691 36.3643 29.0158 36.5726 29.8195L40.6866 28.753ZM38.6908 24.8937L41.9389 22.1529C40.5828 20.5458 38.883 19.2637 36.9652 18.4013L35.2222 22.2774L33.4792 26.1536C34.2363 26.494 34.9073 27.0001 35.4427 27.6346L38.6908 24.8937ZM35.2222 22.2774L39.4094 21.5497C39.0075 19.2371 38.0838 17.0466 36.7084 15.1445L33.2644 17.6348L29.8205 20.1251C30.4389 20.9803 30.8542 21.9653 31.035 23.0052L35.2222 22.2774ZM33.2644 17.6348L36.7084 15.1445C35.333 13.2424 33.5422 11.6789 31.472 10.5727L29.4691 14.3211L27.4661 18.0695C28.3969 18.5668 29.202 19.2698 29.8205 20.1251L33.2644 17.6348ZM29.4691 14.3211L31.472 10.5727C29.4019 9.46644 27.1067 8.84666 24.7611 8.76043L24.605 13.0076L24.4488 17.2547C25.5034 17.2935 26.5353 17.5721 27.4661 18.0695L29.4691 14.3211ZM24.605 13.0076L24.7611 8.76043C22.4155 8.67419 20.0811 9.12378 17.9352 10.075L19.6576 13.9604L21.3799 17.8457C22.3447 17.418 23.3943 17.2159 24.4488 17.2547L24.605 13.0076ZM19.6576 13.9604L17.9352 10.075C15.7894 11.0262 13.8886 12.4541 12.3773 14.25L15.6292 16.9865L18.881 19.7229C19.5605 18.9154 20.4152 18.2734 21.3799 17.8457L19.6576 13.9604ZM15.6292 16.9865L12.3773 14.25C10.866 16.046 9.78397 18.1628 9.21335 20.4396L13.3358 21.4728L17.4583 22.506C17.7149 21.4822 18.2015 20.5304 18.881 19.7229L15.6292 16.9865ZM13.3358 21.4728L9.21335 20.4396C8.64272 22.7164 8.59855 25.0934 9.08417 27.3898L13.2422 26.5105L17.4003 25.6312C17.1819 24.5986 17.2018 23.5298 17.4583 22.506L13.3358 21.4728ZM13.2422 26.5105L9.08417 27.3898C9.5698 29.6863 10.5725 31.8418 12.016 33.6927L15.3672 31.079L18.7185 28.4653C18.0695 27.6331 17.6186 26.6638 17.4003 25.6312L13.2422 26.5105ZM15.3672 31.079L12.3728 28.063L10.4279 29.9941L13.4223 33.01L16.4167 36.026L18.3617 34.0949L15.3672 31.079ZM13.4223 33.01L10.397 30.025C9.61319 30.8195 9.08222 31.8283 8.8711 32.9241L13.0444 33.7281L17.2176 34.5321C17.1111 35.0851 16.8432 35.5941 16.4476 35.995L13.4223 33.01ZM13.0444 33.7281L8.8711 32.9241C8.65998 34.02 8.77817 35.1538 9.21075 36.1826L13.1285 34.5353L17.0462 32.8879C17.2645 33.407 17.3242 33.9791 17.2176 34.5321L13.0444 33.7281ZM13.1285 34.5353L9.19725 36.1501C9.62102 37.1818 10.3407 38.0649 11.2656 38.6882L13.6408 35.1639L16.016 31.6396C16.4828 31.9542 16.8459 32.3998 17.0597 32.9204L13.1285 34.5353ZM13.6408 35.1639L11.2656 38.6882C12.1905 39.3116 13.2792 39.6472 14.3946 39.6528L14.4158 35.4028L14.437 31.1529C14.9999 31.1557 15.5493 31.325 16.016 31.6396L13.6408 35.1639ZM14.4158 35.4028V39.6528H22.3773V35.4028V31.1528H14.4158V35.4028ZM22.3773 35.4028L18.5374 37.2242C19.6743 39.621 21.4667 41.6469 23.7072 43.0673L25.9828 39.4778L28.2583 35.8884C27.3738 35.3276 26.6661 34.5278 26.2173 33.5815L22.3773 35.4028ZM25.9828 39.4778L23.7072 43.0673C25.9478 44.4877 28.5448 45.2445 31.1976 45.25L31.2064 41L31.2153 36.75C30.168 36.7478 29.1428 36.4491 28.2583 35.8884L25.9828 39.4778ZM31.2064 41V45.25H39.6017V41V36.75H31.2064V41ZM39.6017 41L39.623 45.2499C40.7383 45.2444 41.827 44.9088 42.7519 44.2854L40.3767 40.7611L38.0015 37.2368C38.4682 36.9222 39.0177 36.7529 39.5805 36.7501L39.6017 41ZM40.3767 40.7611L42.7519 44.2854C43.6768 43.6621 44.3965 42.7789 44.8203 41.7473L40.889 40.1324L36.9578 38.5176C37.1716 37.997 37.5348 37.5513 38.0015 37.2368L40.3767 40.7611ZM40.889 40.1324L44.8068 41.7798C45.2394 40.751 45.3575 39.6172 45.1464 38.5213L40.9732 39.3253L36.7999 40.1293C36.6934 39.5763 36.753 39.0042 36.9713 38.4851L40.889 40.1324ZM40.9732 39.3253L45.1464 38.5213C44.9353 37.4255 44.4043 36.4167 43.6205 35.6222L40.5952 38.6072L37.5699 41.5922C37.1744 41.1913 36.9064 40.6823 36.7999 40.1293L40.9732 39.3253ZM40.5952 38.6072L43.6005 35.6021L42.0613 34.0629L39.056 37.068L36.0508 40.0731L37.5899 41.6123L40.5952 38.6072ZM21.4119 31.2049L17.1619 31.2224C17.1647 31.9056 17.2193 32.5877 17.3251 33.2626L21.5238 32.6042L25.7225 31.9458C25.6832 31.6949 25.6629 31.4414 25.6618 31.1875L21.4119 31.2049ZM21.5238 32.6042V28.3542H17.7879V32.6042V36.8542H21.5238V32.6042ZM17.7879 32.6042L20.7493 35.6526L21.239 35.1768L18.2776 32.1285L15.3162 29.0801L14.8265 29.5559L17.7879 32.6042ZM18.2776 32.1285L21.2706 35.1459C21.8 34.6207 22.2203 33.9959 22.5071 33.3075L18.5839 31.6731L14.6607 30.0387C14.8054 29.6914 15.0175 29.3761 15.2847 29.111L18.2776 32.1285ZM18.5839 31.6731L22.5071 33.3075C22.7939 32.6191 22.9415 31.8807 22.9415 31.135H18.6915H14.4415C14.4415 30.7587 14.516 30.3861 14.6607 30.0387L18.5839 31.6731ZM18.6915 31.135H22.9415C22.9415 30.3892 22.7939 29.6508 22.5071 28.9625L18.5839 30.5968L14.6607 32.2312C14.516 31.8838 14.4415 31.5113 14.4415 31.135H18.6915ZM18.5839 30.5968L22.5071 28.9625C22.2203 28.2741 21.8 27.6492 21.2706 27.124L18.2776 30.1415L15.2847 33.1589C15.0175 32.8939 14.8054 32.5786 14.6607 32.2312L18.5839 30.5968ZM18.2776 30.1415L21.2663 27.1198C20.8838 26.7415 20.5805 26.2906 20.3742 25.7937L16.4489 27.4229L12.5236 29.0522C13.163 30.5927 14.1031 31.9902 15.289 33.1631L18.2776 30.1415ZM16.4489 27.4229L20.3742 25.7937C20.1679 25.2967 20.0628 24.7636 20.065 24.2255L15.815 24.2084L11.565 24.1914C11.5583 25.8593 11.8842 27.5118 12.5236 29.0522L16.4489 27.4229ZM15.815 24.2084H20.065C20.065 23.1088 20.5018 22.0543 21.2792 21.2769L18.2739 18.2717L15.2686 15.2666C12.8972 17.6382 11.565 20.8547 11.565 24.2084H15.815ZM18.2739 18.2717L21.2792 21.2769C22.0566 20.4994 23.111 20.0627 24.2103 20.0627V15.8127V11.5627C20.8565 11.5627 17.6401 12.895 15.2686 15.2666L18.2739 18.2717ZM24.2103 15.8127L24.2359 20.0626C25.0848 20.0575 25.914 20.3186 26.6069 20.8092L29.0627 17.3405L31.5185 13.8719C29.3754 12.3545 26.8106 11.547 24.1848 11.5627L24.2103 15.8127ZM29.0627 17.3405L26.6069 20.8092C27.2998 21.2997 27.8216 21.9952 28.0989 22.7978L32.1159 21.4099L36.1329 20.022C35.2754 17.54 33.6617 15.3892 31.5185 13.8719L29.0627 17.3405ZM32.1159 21.4099V17.1599C32.1153 17.1599 32.1147 17.1599 32.1141 17.1599C32.1135 17.1599 32.1129 17.1599 32.1123 17.1599C32.1117 17.1599 32.1111 17.1599 32.1105 17.1599C32.1099 17.1599 32.1093 17.1599 32.1087 17.1599C32.1081 17.1599 32.1075 17.1599 32.1069 17.1599C32.1063 17.1599 32.1057 17.1599 32.1051 17.1599C32.1045 17.1599 32.1039 17.1599 32.1033 17.1599C32.1027 17.1599 32.1021 17.1599 32.1015 17.1599C32.1009 17.1599 32.1003 17.1599 32.0997 17.1599C32.0991 17.1599 32.0985 17.1599 32.0979 17.1599C32.0973 17.1599 32.0967 17.1599 32.0961 17.1599C32.0955 17.1599 32.0949 17.1599 32.0943 17.1599C32.0937 17.1599 32.0931 17.1599 32.0925 17.1599C32.0919 17.1599 32.0913 17.1599 32.0907 17.1599C32.0901 17.1599 32.0895 17.1599 32.0889 17.1599C32.0883 17.1599 32.0877 17.1599 32.0871 17.1599C32.0865 17.1599 32.0859 17.1599 32.0853 17.1599C32.0847 17.1599 32.0841 17.1599 32.0835 17.1599C32.0829 17.1599 32.0823 17.1599 32.0817 17.1599C32.0811 17.1599 32.0805 17.1599 32.0799 17.1599C32.0793 17.1599 32.0787 17.1599 32.0781 17.1599C32.0775 17.1599 32.0769 17.1599 32.0763 17.1599C32.0757 17.1599 32.0751 17.1599 32.0745 17.1599C32.0739 17.1599 32.0733 17.1599 32.0727 17.1599C32.0721 17.1599 32.0715 17.1599 32.0709 17.1599C32.0703 17.1599 32.0697 17.1599 32.0691 17.1599C32.0685 17.1599 32.0679 17.1599 32.0673 17.1599C32.0667 17.1599 32.0661 17.1599 32.0655 17.1599C32.0649 17.1599 32.0643 17.1599 32.0637 17.1599C32.0631 17.1599 32.0625 17.1599 32.0619 17.1599C32.0613 17.1599 32.0607 17.1599 32.0601 17.1599C32.0595 17.1599 32.059 17.1599 32.0584 17.1599C32.0578 17.1599 32.0572 17.1599 32.0566 17.1599C32.056 17.1599 32.0554 17.1599 32.0548 17.1599C32.0542 17.1599 32.0536 17.1599 32.053 17.1599C32.0524 17.1599 32.0518 17.1599 32.0512 17.1599C32.0506 17.1599 32.05 17.1599 32.0494 17.1599C32.0488 17.1599 32.0482 17.1599 32.0476 17.1599C32.047 17.1599 32.0464 17.1599 32.0458 17.1599C32.0452 17.1599 32.0446 17.1599 32.044 17.1599C32.0434 17.1599 32.0428 17.1599 32.0422 17.1599C32.0416 17.1599 32.041 17.1599 32.0404 17.1599C32.0398 17.1599 32.0392 17.1599 32.0386 17.1599C32.038 17.1599 32.0374 17.1599 32.0368 17.1599C32.0362 17.1599 32.0357 17.1599 32.0351 17.1599C32.0345 17.1599 32.0339 17.1599 32.0333 17.1599C32.0327 17.1599 32.0321 17.1599 32.0315 17.1599C32.0309 17.1599 32.0303 17.1599 32.0297 17.1599C32.0291 17.1599 32.0285 17.1599 32.0279 17.1599C32.0273 17.1599 32.0267 17.1599 32.0261 17.1599C32.0255 17.1599 32.0249 17.1599 32.0243 17.1599C32.0237 17.1599 32.0231 17.1599 32.0225 17.1599C32.0219 17.1599 32.0213 17.1599 32.0207 17.1599C32.0201 17.1599 32.0195 17.1599 32.0189 17.1599C32.0184 17.1599 32.0178 17.1599 32.0172 17.1599C32.0166 17.1599 32.016 17.1599 32.0154 17.1599C32.0148 17.1599 32.0142 17.1599 32.0136 17.1599C32.013 17.1599 32.0124 17.1599 32.0118 17.1599C32.0112 17.1599 32.0106 17.1599 32.01 17.1599C32.0094 17.1599 32.0088 17.1599 32.0082 17.1599C32.0076 17.1599 32.007 17.1599 32.0064 17.1599C32.0058 17.1599 32.0052 17.1599 32.0047 17.1599C32.0041 17.1599 32.0035 17.1599 32.0029 17.1599C32.0023 17.1599 32.0017 17.1599 32.0011 17.1599C32.0005 17.1599 31.9999 17.1599 31.9993 17.1599C31.9987 17.1599 31.9981 17.1599 31.9975 17.1599C31.9969 17.1599 31.9963 17.1599 31.9957 17.1599C31.9951 17.1599 31.9945 17.1599 31.9939 17.1599C31.9933 17.1599 31.9928 17.1599 31.9922 17.1599C31.9916 17.1599 31.991 17.1599 31.9904 17.1599C31.9898 17.1599 31.9892 17.1599 31.9886 17.1599C31.988 17.1599 31.9874 17.1599 31.9868 17.1599C31.9862 17.1599 31.9856 17.1599 31.985 17.1599C31.9844 17.1599 31.9838 17.1599 31.9832 17.1599C31.9826 17.1599 31.982 17.1599 31.9815 17.1599C31.9809 17.1599 31.9803 17.1599 31.9797 17.1599C31.9791 17.1599 31.9785 17.1599 31.9779 17.1599C31.9773 17.1599 31.9767 17.1599 31.9761 17.1599C31.9755 17.1599 31.9749 17.1599 31.9743 17.1599C31.9737 17.1599 31.9731 17.1599 31.9725 17.1599C31.9719 17.1599 31.9713 17.1599 31.9708 17.1599C31.9702 17.1599 31.9696 17.1599 31.969 17.1599C31.9684 17.1599 31.9678 17.1599 31.9672 17.1599C31.9666 17.1599 31.966 17.1599 31.9654 17.1599C31.9648 17.1599 31.9642 17.1599 31.9636 17.1599C31.963 17.1599 31.9624 17.1599 31.9618 17.1599C31.9613 17.1599 31.9607 17.1599 31.9601 17.1599C31.9595 17.1599 31.9589 17.1599 31.9583 17.1599C31.9577 17.1599 31.9571 17.1599 31.9565 17.1599C31.9559 17.1599 31.9553 17.1599 31.9547 17.1599C31.9541 17.1599 31.9535 17.1599 31.9529 17.1599C31.9524 17.1599 31.9518 17.1599 31.9512 17.1599C31.9506 17.1599 31.95 17.1599 31.9494 17.1599C31.9488 17.1599 31.9482 17.1599 31.9476 17.1599C31.947 17.1599 31.9464 17.1599 31.9458 17.1599C31.9452 17.1599 31.9446 17.1599 31.9441 17.1599C31.9435 17.1599 31.9429 17.1599 31.9423 17.1599C31.9417 17.1599 31.9411 17.1599 31.9405 17.1599C31.9399 17.1599 31.9393 17.1599 31.9387 17.1599C31.9381 17.1599 31.9375 17.1599 31.9369 17.1599C31.9363 17.1599 31.9358 17.1599 31.9352 17.1599C31.9346 17.1599 31.934 17.1599 31.9334 17.1599C31.9328 17.1599 31.9322 17.1599 31.9316 17.1599C31.931 17.1599 31.9304 17.1599 31.9298 17.1599C31.9292 17.1599 31.9286 17.1599 31.9281 17.1599C31.9275 17.1599 31.9269 17.1599 31.9263 17.1599C31.9257 17.1599 31.9251 17.1599 31.9245 17.1599C31.9239 17.1599 31.9233 17.1599 31.9227 17.1599C31.9221 17.1599 31.9215 17.1599 31.9209 17.1599C31.9204 17.1599 31.9198 17.1599 31.9192 17.1599C31.9186 17.1599 31.918 17.1599 31.9174 17.1599C31.9168 17.1599 31.9162 17.1599 31.9156 17.1599C31.915 17.1599 31.9144 17.1599 31.9138 17.1599C31.9132 17.1599 31.9127 17.1599 31.9121 17.1599C31.9115 17.1599 31.9109 17.1599 31.9103 17.1599C31.9097 17.1599 31.9091 17.1599 31.9085 17.1599C31.9079 17.1599 31.9073 17.1599 31.9067 17.1599C31.9062 17.1599 31.9056 17.1599 31.905 17.1599C31.9044 17.1599 31.9038 17.1599 31.9032 17.1599C31.9026 17.1599 31.902 17.1599 31.9014 17.1599C31.9008 17.1599 31.9002 17.1599 31.8996 17.1599C31.8991 17.1599 31.8985 17.1599 31.8979 17.1599C31.8973 17.1599 31.8967 17.1599 31.8961 17.1599C31.8955 17.1599 31.8949 17.1599 31.8943 17.1599C31.8937 17.1599 31.8931 17.1599 31.8925 17.1599C31.892 17.1599 31.8914 17.1599 31.8908 17.1599C31.8902 17.1599 31.8896 17.1599 31.889 17.1599C31.8884 17.1599 31.8878 17.1599 31.8872 17.1599C31.8866 17.1599 31.886 17.1599 31.8855 17.1599C31.8849 17.1599 31.8843 17.1599 31.8837 17.1599C31.8831 17.1599 31.8825 17.1599 31.8819 17.1599C31.8813 17.1599 31.8807 17.1599 31.8801 17.1599C31.8795 17.1599 31.879 17.1599 31.8784 17.1599C31.8778 17.1599 31.8772 17.1599 31.8766 17.1599C31.876 17.1599 31.8754 17.1599 31.8748 17.1599C31.8742 17.1599 31.8736 17.1599 31.8731 17.1599C31.8725 17.1599 31.8719 17.1599 31.8713 17.1599C31.8707 17.1599 31.8701 17.1599 31.8695 17.1599C31.8689 17.1599 31.8683 17.1599 31.8677 17.1599C31.8671 17.1599 31.8666 17.1599 31.866 17.1599C31.8654 17.1599 31.8648 17.1599 31.8642 17.1599C31.8636 17.1599 31.863 17.1599 31.8624 17.1599C31.8618 17.1599 31.8612 17.1599 31.8607 17.1599C31.8601 17.1599 31.8595 17.1599 31.8589 17.1599C31.8583 17.1599 31.8577 17.1599 31.8571 17.1599C31.8565 17.1599 31.8559 17.1599 31.8553 17.1599C31.8548 17.1599 31.8542 17.1599 31.8536 17.1599C31.853 17.1599 31.8524 17.1599 31.8518 17.1599C31.8512 17.1599 31.8506 17.1599 31.85 17.1599C31.8494 17.1599 31.8489 17.1599 31.8483 17.1599C31.8477 17.1599 31.8471 17.1599 31.8465 17.1599C31.8459 17.1599 31.8453 17.1599 31.8447 17.1599C31.8441 17.1599 31.8435 17.1599 31.843 17.1599C31.8424 17.1599 31.8418 17.1599 31.8412 17.1599C31.8406 17.1599 31.84 17.1599 31.8394 17.1599C31.8388 17.1599 31.8382 17.1599 31.8376 17.1599C31.8371 17.1599 31.8365 17.1599 31.8359 17.1599C31.8353 17.1599 31.8347 17.1599 31.8341 17.1599C31.8335 17.1599 31.8329 17.1599 31.8323 17.1599C31.8317 17.1599 31.8312 17.1599 31.8306 17.1599C31.83 17.1599 31.8294 17.1599 31.8288 17.1599C31.8282 17.1599 31.8276 17.1599 31.827 17.1599C31.8264 17.1599 31.8259 17.1599 31.8253 17.1599C31.8247 17.1599 31.8241 17.1599 31.8235 17.1599C31.8229 17.1599 31.8223 17.1599 31.8217 17.1599C31.8211 17.1599 31.8206 17.1599 31.82 17.1599C31.8194 17.1599 31.8188 17.1599 31.8182 17.1599C31.8176 17.1599 31.817 17.1599 31.8164 17.1599C31.8158 17.1599 31.8152 17.1599 31.8147 17.1599C31.8141 17.1599 31.8135 17.1599 31.8129 17.1599C31.8123 17.1599 31.8117 17.1599 31.8111 17.1599C31.8105 17.1599 31.8099 17.1599 31.8094 17.1599C31.8088 17.1599 31.8082 17.1599 31.8076 17.1599C31.807 17.1599 31.8064 17.1599 31.8058 17.1599C31.8052 17.1599 31.8046 17.1599 31.8041 17.1599C31.8035 17.1599 31.8029 17.1599 31.8023 17.1599C31.8017 17.1599 31.8011 17.1599 31.8005 17.1599C31.7999 17.1599 31.7993 17.1599 31.7988 17.1599C31.7982 17.1599 31.7976 17.1599 31.797 17.1599C31.7964 17.1599 31.7958 17.1599 31.7952 17.1599C31.7946 17.1599 31.794 17.1599 31.7935 17.1599C31.7929 17.1599 31.7923 17.1599 31.7917 17.1599C31.7911 17.1599 31.7905 17.1599 31.7899 17.1599C31.7893 17.1599 31.7887 17.1599 31.7882 17.1599C31.7876 17.1599 31.787 17.1599 31.7864 17.1599C31.7858 17.1599 31.7852 17.1599 31.7846 17.1599C31.784 17.1599 31.7835 17.1599 31.7829 17.1599C31.7823 17.1599 31.7817 17.1599 31.7811 17.1599C31.7805 17.1599 31.7799 17.1599 31.7793 17.1599C31.7787 17.1599 31.7782 17.1599 31.7776 17.1599C31.777 17.1599 31.7764 17.1599 31.7758 17.1599C31.7752 17.1599 31.7746 17.1599 31.774 17.1599C31.7734 17.1599 31.7729 17.1599 31.7723 17.1599C31.7717 17.1599 31.7711 17.1599 31.7705 17.1599C31.7699 17.1599 31.7693 17.1599 31.7687 17.1599C31.7682 17.1599 31.7676 17.1599 31.767 17.1599C31.7664 17.1599 31.7658 17.1599 31.7652 17.1599C31.7646 17.1599 31.764 17.1599 31.7634 17.1599C31.7629 17.1599 31.7623 17.1599 31.7617 17.1599C31.7611 17.1599 31.7605 17.1599 31.7599 17.1599C31.7593 17.1599 31.7587 17.1599 31.7582 17.1599C31.7576 17.1599 31.757 17.1599 31.7564 17.1599C31.7558 17.1599 31.7552 17.1599 31.7546 17.1599C31.754 17.1599 31.7534 17.1599 31.7529 17.1599C31.7523 17.1599 31.7517 17.1599 31.7511 17.1599C31.7505 17.1599 31.7499 17.1599 31.7493 17.1599C31.7487 17.1599 31.7482 17.1599 31.7476 17.1599C31.747 17.1599 31.7464 17.1599 31.7458 17.1599C31.7452 17.1599 31.7446 17.1599 31.744 17.1599C31.7434 17.1599 31.7429 17.1599 31.7423 17.1599C31.7417 17.1599 31.7411 17.1599 31.7405 17.1599C31.7399 17.1599 31.7393 17.1599 31.7387 17.1599C31.7382 17.1599 31.7376 17.1599 31.737 17.1599C31.7364 17.1599 31.7358 17.1599 31.7352 17.1599C31.7346 17.1599 31.734 17.1599 31.7335 17.1599C31.7329 17.1599 31.7323 17.1599 31.7317 17.1599C31.7311 17.1599 31.7305 17.1599 31.7299 17.1599C31.7293 17.1599 31.7288 17.1599 31.7282 17.1599C31.7276 17.1599 31.727 17.1599 31.7264 17.1599C31.7258 17.1599 31.7252 17.1599 31.7246 17.1599C31.724 17.1599 31.7235 17.1599 31.7229 17.1599C31.7223 17.1599 31.7217 17.1599 31.7211 17.1599C31.7205 17.1599 31.7199 17.1599 31.7193 17.1599C31.7188 17.1599 31.7182 17.1599 31.7176 17.1599C31.717 17.1599 31.7164 17.1599 31.7158 17.1599C31.7152 17.1599 31.7146 17.1599 31.7141 17.1599C31.7135 17.1599 31.7129 17.1599 31.7123 17.1599C31.7117 17.1599 31.7111 17.1599 31.7105 17.1599C31.7099 17.1599 31.7094 17.1599 31.7088 17.1599C31.7082 17.1599 31.7076 17.1599 31.707 17.1599C31.7064 17.1599 31.7058 17.1599 31.7052 17.1599C31.7047 17.1599 31.7041 17.1599 31.7035 17.1599C31.7029 17.1599 31.7023 17.1599 31.7017 17.1599C31.7011 17.1599 31.7005 17.1599 31.6999 17.1599C31.6994 17.1599 31.6988 17.1599 31.6982 17.1599C31.6976 17.1599 31.697 17.1599 31.6964 17.1599C31.6958 17.1599 31.6952 17.1599 31.6947 17.1599C31.6941 17.1599 31.6935 17.1599 31.6929 17.1599C31.6923 17.1599 31.6917 17.1599 31.6911 17.1599C31.6905 17.1599 31.69 17.1599 31.6894 17.1599C31.6888 17.1599 31.6882 17.1599 31.6876 17.1599C31.687 17.1599 31.6864 17.1599 31.6858 17.1599C31.6853 17.1599 31.6847 17.1599 31.6841 17.1599C31.6835 17.1599 31.6829 17.1599 31.6823 17.1599C31.6817 17.1599 31.6811 17.1599 31.6806 17.1599C31.68 17.1599 31.6794 17.1599 31.6788 17.1599C31.6782 17.1599 31.6776 17.1599 31.677 17.1599C31.6764 17.1599 31.6759 17.1599 31.6753 17.1599C31.6747 17.1599 31.6741 17.1599 31.6735 17.1599C31.6729 17.1599 31.6723 17.1599 31.6717 17.1599C31.6712 17.1599 31.6706 17.1599 31.67 17.1599C31.6694 17.1599 31.6688 17.1599 31.6682 17.1599C31.6676 17.1599 31.667 17.1599 31.6665 17.1599C31.6659 17.1599 31.6653 17.1599 31.6647 17.1599C31.6641 17.1599 31.6635 17.1599 31.6629 17.1599C31.6623 17.1599 31.6618 17.1599 31.6612 17.1599C31.6606 17.1599 31.66 17.1599 31.6594 17.1599C31.6588 17.1599 31.6582 17.1599 31.6576 17.1599C31.6571 17.1599 31.6565 17.1599 31.6559 17.1599C31.6553 17.1599 31.6547 17.1599 31.6541 17.1599C31.6535 17.1599 31.6529 17.1599 31.6524 17.1599C31.6518 17.1599 31.6512 17.1599 31.6506 17.1599C31.65 17.1599 31.6494 17.1599 31.6488 17.1599C31.6482 17.1599 31.6477 17.1599 31.6471 17.1599C31.6465 17.1599 31.6459 17.1599 31.6453 17.1599C31.6447 17.1599 31.6441 17.1599 31.6435 17.1599C31.643 17.1599 31.6424 17.1599 31.6418 17.1599C31.6412 17.1599 31.6406 17.1599 31.64 17.1599C31.6394 17.1599 31.6388 17.1599 31.6383 17.1599C31.6377 17.1599 31.6371 17.1599 31.6365 17.1599C31.6359 17.1599 31.6353 17.1599 31.6347 17.1599C31.6341 17.1599 31.6336 17.1599 31.633 17.1599C31.6324 17.1599 31.6318 17.1599 31.6312 17.1599C31.6306 17.1599 31.63 17.1599 31.6294 17.1599C31.6289 17.1599 31.6283 17.1599 31.6277 17.1599C31.6271 17.1599 31.6265 17.1599 31.6259 17.1599C31.6253 17.1599 31.6247 17.1599 31.6241 17.1599C31.6236 17.1599 31.623 17.1599 31.6224 17.1599C31.6218 17.1599 31.6212 17.1599 31.6206 17.1599C31.62 17.1599 31.6194 17.1599 31.6189 17.1599C31.6183 17.1599 31.6177 17.1599 31.6171 17.1599C31.6165 17.1599 31.6159 17.1599 31.6153 17.1599C31.6147 17.1599 31.6142 17.1599 31.6136 17.1599C31.613 17.1599 31.6124 17.1599 31.6118 17.1599C31.6112 17.1599 31.6106 17.1599 31.61 17.1599C31.6095 17.1599 31.6089 17.1599 31.6083 17.1599C31.6077 17.1599 31.6071 17.1599 31.6065 17.1599C31.6059 17.1599 31.6053 17.1599 31.6048 17.1599C31.6042 17.1599 31.6036 17.1599 31.603 17.1599C31.6024 17.1599 31.6018 17.1599 31.6012 17.1599C31.6006 17.1599 31.6001 17.1599 31.5995 17.1599C31.5989 17.1599 31.5983 17.1599 31.5977 17.1599C31.5971 17.1599 31.5965 17.1599 31.5959 17.1599C31.5954 17.1599 31.5948 17.1599 31.5942 17.1599C31.5936 17.1599 31.593 17.1599 31.5924 17.1599C31.5918 17.1599 31.5912 17.1599 31.5906 17.1599C31.5901 17.1599 31.5895 17.1599 31.5889 17.1599C31.5883 17.1599 31.5877 17.1599 31.5871 17.1599C31.5865 17.1599 31.5859 17.1599 31.5854 17.1599C31.5848 17.1599 31.5842 17.1599 31.5836 17.1599C31.583 17.1599 31.5824 17.1599 31.5818 17.1599C31.5812 17.1599 31.5807 17.1599 31.5801 17.1599C31.5795 17.1599 31.5789 17.1599 31.5783 17.1599C31.5777 17.1599 31.5771 17.1599 31.5765 17.1599C31.5759 17.1599 31.5754 17.1599 31.5748 17.1599C31.5742 17.1599 31.5736 17.1599 31.573 17.1599C31.5724 17.1599 31.5718 17.1599 31.5712 17.1599C31.5707 17.1599 31.5701 17.1599 31.5695 17.1599C31.5689 17.1599 31.5683 17.1599 31.5677 17.1599C31.5671 17.1599 31.5665 17.1599 31.566 17.1599C31.5654 17.1599 31.5648 17.1599 31.5642 17.1599C31.5636 17.1599 31.563 17.1599 31.5624 17.1599C31.5618 17.1599 31.5612 17.1599 31.5607 17.1599C31.5601 17.1599 31.5595 17.1599 31.5589 17.1599C31.5583 17.1599 31.5577 17.1599 31.5571 17.1599C31.5565 17.1599 31.556 17.1599 31.5554 17.1599C31.5548 17.1599 31.5542 17.1599 31.5536 17.1599C31.553 17.1599 31.5524 17.1599 31.5518 17.1599C31.5512 17.1599 31.5507 17.1599 31.5501 17.1599C31.5495 17.1599 31.5489 17.1599 31.5483 17.1599C31.5477 17.1599 31.5471 17.1599 31.5465 17.1599C31.5459 17.1599 31.5454 17.1599 31.5448 17.1599C31.5442 17.1599 31.5436 17.1599 31.543 17.1599C31.5424 17.1599 31.5418 17.1599 31.5412 17.1599C31.5407 17.1599 31.5401 17.1599 31.5395 17.1599C31.5389 17.1599 31.5383 17.1599 31.5377 17.1599C31.5371 17.1599 31.5365 17.1599 31.5359 17.1599C31.5354 17.1599 31.5348 17.1599 31.5342 17.1599C31.5336 17.1599 31.533 17.1599 31.5324 17.1599C31.5318 17.1599 31.5312 17.1599 31.5306 17.1599C31.5301 17.1599 31.5295 17.1599 31.5289 17.1599C31.5283 17.1599 31.5277 17.1599 31.5271 17.1599C31.5265 17.1599 31.5259 17.1599 31.5253 17.1599C31.5248 17.1599 31.5242 17.1599 31.5236 17.1599C31.523 17.1599 31.5224 17.1599 31.5218 17.1599C31.5212 17.1599 31.5206 17.1599 31.52 17.1599C31.5195 17.1599 31.5189 17.1599 31.5183 17.1599C31.5177 17.1599 31.5171 17.1599 31.5165 17.1599C31.5159 17.1599 31.5153 17.1599 31.5147 17.1599C31.5142 17.1599 31.5136 17.1599 31.513 17.1599C31.5124 17.1599 31.5118 17.1599 31.5112 17.1599C31.5106 17.1599 31.51 17.1599 31.5094 17.1599C31.5089 17.1599 31.5083 17.1599 31.5077 17.1599C31.5071 17.1599 31.5065 17.1599 31.5059 17.1599C31.5053 17.1599 31.5047 17.1599 31.5041 17.1599C31.5036 17.1599 31.503 17.1599 31.5024 17.1599C31.5018 17.1599 31.5012 17.1599 31.5006 17.1599C31.5 17.1599 31.4994 17.1599 31.4988 17.1599C31.4982 17.1599 31.4977 17.1599 31.4971 17.1599C31.4965 17.1599 31.4959 17.1599 31.4953 17.1599C31.4947 17.1599 31.4941 17.1599 31.4935 17.1599C31.4929 17.1599 31.4924 17.1599 31.4918 17.1599C31.4912 17.1599 31.4906 17.1599 31.49 17.1599C31.4894 17.1599 31.4888 17.1599 31.4882 17.1599C31.4876 17.1599 31.487 17.1599 31.4865 17.1599C31.4859 17.1599 31.4853 17.1599 31.4847 17.1599C31.4841 17.1599 31.4835 17.1599 31.4829 17.1599C31.4823 17.1599 31.4817 17.1599 31.4812 17.1599C31.4806 17.1599 31.48 17.1599 31.4794 17.1599C31.4788 17.1599 31.4782 17.1599 31.4776 17.1599C31.477 17.1599 31.4764 17.1599 31.4758 17.1599C31.4753 17.1599 31.4747 17.1599 31.4741 17.1599C31.4735 17.1599 31.4729 17.1599 31.4723 17.1599C31.4717 17.1599 31.4711 17.1599 31.4705 17.1599C31.4699 17.1599 31.4694 17.1599 31.4688 17.1599C31.4682 17.1599 31.4676 17.1599 31.467 17.1599C31.4664 17.1599 31.4658 17.1599 31.4652 17.1599C31.4646 17.1599 31.464 17.1599 31.4635 17.1599C31.4629 17.1599 31.4623 17.1599 31.4617 17.1599C31.4611 17.1599 31.4605 17.1599 31.4599 17.1599C31.4593 17.1599 31.4587 17.1599 31.4581 17.1599C31.4576 17.1599 31.457 17.1599 31.4564 17.1599C31.4558 17.1599 31.4552 17.1599 31.4546 17.1599C31.454 17.1599 31.4534 17.1599 31.4528 17.1599C31.4522 17.1599 31.4516 17.1599 31.4511 17.1599C31.4505 17.1599 31.4499 17.1599 31.4493 17.1599C31.4487 17.1599 31.4481 17.1599 31.4475 17.1599C31.4469 17.1599 31.4463 17.1599 31.4457 17.1599C31.4452 17.1599 31.4446 17.1599 31.444 17.1599C31.4434 17.1599 31.4428 17.1599 31.4422 17.1599C31.4416 17.1599 31.441 17.1599 31.4404 17.1599C31.4398 17.1599 31.4392 17.1599 31.4387 17.1599C31.4381 17.1599 31.4375 17.1599 31.4369 17.1599C31.4363 17.1599 31.4357 17.1599 31.4351 17.1599C31.4345 17.1599 31.4339 17.1599 31.4333 17.1599C31.4327 17.1599 31.4322 17.1599 31.4316 17.1599C31.431 17.1599 31.4304 17.1599 31.4298 17.1599C31.4292 17.1599 31.4286 17.1599 31.428 17.1599C31.4274 17.1599 31.4268 17.1599 31.4262 17.1599C31.4256 17.1599 31.4251 17.1599 31.4245 17.1599C31.4239 17.1599 31.4233 17.1599 31.4227 17.1599C31.4221 17.1599 31.4215 17.1599 31.4209 17.1599C31.4203 17.1599 31.4197 17.1599 31.4191 17.1599C31.4186 17.1599 31.418 17.1599 31.4174 17.1599C31.4168 17.1599 31.4162 17.1599 31.4156 17.1599C31.415 17.1599 31.4144 17.1599 31.4138 17.1599C31.4132 17.1599 31.4126 17.1599 31.412 17.1599C31.4115 17.1599 31.4109 17.1599 31.4103 17.1599C31.4097 17.1599 31.4091 17.1599 31.4085 17.1599C31.4079 17.1599 31.4073 17.1599 31.4067 17.1599C31.4061 17.1599 31.4055 17.1599 31.4049 17.1599C31.4044 17.1599 31.4038 17.1599 31.4032 17.1599C31.4026 17.1599 31.402 17.1599 31.4014 17.1599C31.4008 17.1599 31.4002 17.1599 31.3996 17.1599C31.399 17.1599 31.3984 17.1599 31.3978 17.1599C31.3972 17.1599 31.3967 17.1599 31.3961 17.1599C31.3955 17.1599 31.3949 17.1599 31.3943 17.1599C31.3937 17.1599 31.3931 17.1599 31.3925 17.1599C31.3919 17.1599 31.3913 17.1599 31.3907 17.1599C31.3901 17.1599 31.3895 17.1599 31.389 17.1599C31.3884 17.1599 31.3878 17.1599 31.3872 17.1599C31.3866 17.1599 31.386 17.1599 31.3854 17.1599C31.3848 17.1599 31.3842 17.1599 31.3836 17.1599C31.383 17.1599 31.3824 17.1599 31.3818 17.1599C31.3812 17.1599 31.3807 17.1599 31.3801 17.1599C31.3795 17.1599 31.3789 17.1599 31.3783 17.1599C31.3777 17.1599 31.3771 17.1599 31.3765 17.1599C31.3759 17.1599 31.3753 17.1599 31.3747 17.1599C31.3741 17.1599 31.3735 17.1599 31.3729 17.1599C31.3724 17.1599 31.3718 17.1599 31.3712 17.1599C31.3706 17.1599 31.37 17.1599 31.3694 17.1599C31.3688 17.1599 31.3682 17.1599 31.3676 17.1599C31.367 17.1599 31.3664 17.1599 31.3658 17.1599C31.3652 17.1599 31.3646 17.1599 31.364 17.1599C31.3635 17.1599 31.3629 17.1599 31.3623 17.1599C31.3617 17.1599 31.3611 17.1599 31.3605 17.1599C31.3599 17.1599 31.3593 17.1599 31.3587 17.1599C31.3581 17.1599 31.3575 17.1599 31.3569 17.1599C31.3563 17.1599 31.3557 17.1599 31.3551 17.1599C31.3545 17.1599 31.354 17.1599 31.3534 17.1599C31.3528 17.1599 31.3522 17.1599 31.3516 17.1599C31.351 17.1599 31.3504 17.1599 31.3498 17.1599C31.3492 17.1599 31.3486 17.1599 31.348 17.1599C31.3474 17.1599 31.3468 17.1599 31.3462 17.1599C31.3456 17.1599 31.345 17.1599 31.3445 17.1599C31.3439 17.1599 31.3433 17.1599 31.3427 17.1599C31.3421 17.1599 31.3415 17.1599 31.3409 17.1599C31.3403 17.1599 31.3397 17.1599 31.3391 17.1599C31.3385 17.1599 31.3379 17.1599 31.3373 17.1599C31.3367 17.1599 31.3361 17.1599 31.3355 17.1599C31.3349 17.1599 31.3343 17.1599 31.3338 17.1599C31.3332 17.1599 31.3326 17.1599 31.332 17.1599C31.3314 17.1599 31.3308 17.1599 31.3302 17.1599C31.3296 17.1599 31.329 17.1599 31.3284 17.1599C31.3278 17.1599 31.3272 17.1599 31.3266 17.1599C31.326 17.1599 31.3254 17.1599 31.3248 17.1599C31.3242 17.1599 31.3236 17.1599 31.323 17.1599C31.3224 17.1599 31.3219 17.1599 31.3213 17.1599C31.3207 17.1599 31.3201 17.1599 31.3195 17.1599C31.3189 17.1599 31.3183 17.1599 31.3177 17.1599C31.3171 17.1599 31.3165 17.1599 31.3159 17.1599C31.3153 17.1599 31.3147 17.1599 31.3141 17.1599C31.3135 17.1599 31.3129 17.1599 31.3123 17.1599C31.3117 17.1599 31.3111 17.1599 31.3105 17.1599C31.3099 17.1599 31.3093 17.1599 31.3088 17.1599C31.3082 17.1599 31.3076 17.1599 31.307 17.1599C31.3064 17.1599 31.3058 17.1599 31.3052 17.1599C31.3046 17.1599 31.304 17.1599 31.3034 17.1599C31.3028 17.1599 31.3022 17.1599 31.3016 17.1599C31.301 17.1599 31.3004 17.1599 31.2998 17.1599C31.2992 17.1599 31.2986 17.1599 31.298 17.1599C31.2974 17.1599 31.2968 17.1599 31.2962 17.1599C31.2956 17.1599 31.295 17.1599 31.2944 17.1599C31.2938 17.1599 31.2932 17.1599 31.2927 17.1599C31.2921 17.1599 31.2915 17.1599 31.2909 17.1599C31.2903 17.1599 31.2897 17.1599 31.2891 17.1599C31.2885 17.1599 31.2879 17.1599 31.2873 17.1599C31.2867 17.1599 31.2861 17.1599 31.2855 17.1599C31.2849 17.1599 31.2843 17.1599 31.2837 17.1599C31.2831 17.1599 31.2825 17.1599 31.2819 17.1599C31.2813 17.1599 31.2807 17.1599 31.2801 17.1599C31.2795 17.1599 31.2789 17.1599 31.2783 17.1599C31.2777 17.1599 31.2771 17.1599 31.2765 17.1599C31.2759 17.1599 31.2753 17.1599 31.2747 17.1599C31.2741 17.1599 31.2735 17.1599 31.2729 17.1599C31.2724 17.1599 31.2718 17.1599 31.2712 17.1599C31.2706 17.1599 31.27 17.1599 31.2694 17.1599C31.2688 17.1599 31.2682 17.1599 31.2676 17.1599C31.267 17.1599 31.2664 17.1599 31.2658 17.1599C31.2652 17.1599 31.2646 17.1599 31.264 17.1599C31.2634 17.1599 31.2628 17.1599 31.2622 17.1599C31.2616 17.1599 31.261 17.1599 31.2604 17.1599C31.2598 17.1599 31.2592 17.1599 31.2586 17.1599C31.258 17.1599 31.2574 17.1599 31.2568 17.1599C31.2562 17.1599 31.2556 17.1599 31.255 17.1599C31.2544 17.1599 31.2538 17.1599 31.2532 17.1599C31.2526 17.1599 31.252 17.1599 31.2514 17.1599C31.2508 17.1599 31.2502 17.1599 31.2496 17.1599C31.249 17.1599 31.2484 17.1599 31.2478 17.1599C31.2472 17.1599 31.2466 17.1599 31.246 17.1599C31.2454 17.1599 31.2448 17.1599 31.2442 17.1599C31.2436 17.1599 31.243 17.1599 31.2424 17.1599C31.2418 17.1599 31.2412 17.1599 31.2406 17.1599C31.24 17.1599 31.2394 17.1599 31.2388 17.1599C31.2382 17.1599 31.2376 17.1599 31.237 17.1599C31.2364 17.1599 31.2358 17.1599 31.2352 17.1599C31.2346 17.1599 31.234 17.1599 31.2334 17.1599C31.2328 17.1599 31.2322 17.1599 31.2316 17.1599C31.231 17.1599 31.2304 17.1599 31.2298 17.1599C31.2292 17.1599 31.2286 17.1599 31.228 17.1599C31.2274 17.1599 31.2268 17.1599 31.2262 17.1599C31.2256 17.1599 31.225 17.1599 31.2244 17.1599C31.2238 17.1599 31.2232 17.1599 31.2226 17.1599C31.222 17.1599 31.2214 17.1599 31.2208 17.1599C31.2202 17.1599 31.2196 17.1599 31.219 17.1599C31.2184 17.1599 31.2178 17.1599 31.2172 17.1599C31.2166 17.1599 31.216 17.1599 31.2154 17.1599C31.2148 17.1599 31.2142 17.1599 31.2136 17.1599C31.213 17.1599 31.2124 17.1599 31.2118 17.1599C31.2112 17.1599 31.2106 17.1599 31.21 17.1599C31.2094 17.1599 31.2088 17.1599 31.2082 17.1599C31.2076 17.1599 31.207 17.1599 31.2064 17.1599V21.4099V25.6599C31.207 25.6599 31.2076 25.6599 31.2082 25.6599C31.2088 25.6599 31.2094 25.6599 31.21 25.6599C31.2106 25.6599 31.2112 25.6599 31.2118 25.6599C31.2124 25.6599 31.213 25.6599 31.2136 25.6599C31.2142 25.6599 31.2148 25.6599 31.2154 25.6599C31.216 25.6599 31.2166 25.6599 31.2172 25.6599C31.2178 25.6599 31.2184 25.6599 31.219 25.6599C31.2196 25.6599 31.2202 25.6599 31.2208 25.6599C31.2214 25.6599 31.222 25.6599 31.2226 25.6599C31.2232 25.6599 31.2238 25.6599 31.2244 25.6599C31.225 25.6599 31.2256 25.6599 31.2262 25.6599C31.2268 25.6599 31.2274 25.6599 31.228 25.6599C31.2286 25.6599 31.2292 25.6599 31.2298 25.6599C31.2304 25.6599 31.231 25.6599 31.2316 25.6599C31.2322 25.6599 31.2328 25.6599 31.2334 25.6599C31.234 25.6599 31.2346 25.6599 31.2352 25.6599C31.2358 25.6599 31.2364 25.6599 31.237 25.6599C31.2376 25.6599 31.2382 25.6599 31.2388 25.6599C31.2394 25.6599 31.24 25.6599 31.2406 25.6599C31.2412 25.6599 31.2418 25.6599 31.2424 25.6599C31.243 25.6599 31.2436 25.6599 31.2442 25.6599C31.2448 25.6599 31.2454 25.6599 31.246 25.6599C31.2466 25.6599 31.2472 25.6599 31.2478 25.6599C31.2484 25.6599 31.249 25.6599 31.2496 25.6599C31.2502 25.6599 31.2508 25.6599 31.2514 25.6599C31.252 25.6599 31.2526 25.6599 31.2532 25.6599C31.2538 25.6599 31.2544 25.6599 31.255 25.6599C31.2556 25.6599 31.2562 25.6599 31.2568 25.6599C31.2574 25.6599 31.258 25.6599 31.2586 25.6599C31.2592 25.6599 31.2598 25.6599 31.2604 25.6599C31.261 25.6599 31.2616 25.6599 31.2622 25.6599C31.2628 25.6599 31.2634 25.6599 31.264 25.6599C31.2646 25.6599 31.2652 25.6599 31.2658 25.6599C31.2664 25.6599 31.267 25.6599 31.2676 25.6599C31.2682 25.6599 31.2688 25.6599 31.2694 25.6599C31.27 25.6599 31.2706 25.6599 31.2712 25.6599C31.2718 25.6599 31.2724 25.6599 31.2729 25.6599C31.2735 25.6599 31.2741 25.6599 31.2747 25.6599C31.2753 25.6599 31.2759 25.6599 31.2765 25.6599C31.2771 25.6599 31.2777 25.6599 31.2783 25.6599C31.2789 25.6599 31.2795 25.6599 31.2801 25.6599C31.2807 25.6599 31.2813 25.6599 31.2819 25.6599C31.2825 25.6599 31.2831 25.6599 31.2837 25.6599C31.2843 25.6599 31.2849 25.6599 31.2855 25.6599C31.2861 25.6599 31.2867 25.6599 31.2873 25.6599C31.2879 25.6599 31.2885 25.6599 31.2891 25.6599C31.2897 25.6599 31.2903 25.6599 31.2909 25.6599C31.2915 25.6599 31.2921 25.6599 31.2927 25.6599C31.2932 25.6599 31.2938 25.6599 31.2944 25.6599C31.295 25.6599 31.2956 25.6599 31.2962 25.6599C31.2968 25.6599 31.2974 25.6599 31.298 25.6599C31.2986 25.6599 31.2992 25.6599 31.2998 25.6599C31.3004 25.6599 31.301 25.6599 31.3016 25.6599C31.3022 25.6599 31.3028 25.6599 31.3034 25.6599C31.304 25.6599 31.3046 25.6599 31.3052 25.6599C31.3058 25.6599 31.3064 25.6599 31.307 25.6599C31.3076 25.6599 31.3082 25.6599 31.3088 25.6599C31.3093 25.6599 31.3099 25.6599 31.3105 25.6599C31.3111 25.6599 31.3117 25.6599 31.3123 25.6599C31.3129 25.6599 31.3135 25.6599 31.3141 25.6599C31.3147 25.6599 31.3153 25.6599 31.3159 25.6599C31.3165 25.6599 31.3171 25.6599 31.3177 25.6599C31.3183 25.6599 31.3189 25.6599 31.3195 25.6599C31.3201 25.6599 31.3207 25.6599 31.3213 25.6599C31.3219 25.6599 31.3224 25.6599 31.323 25.6599C31.3236 25.6599 31.3242 25.6599 31.3248 25.6599C31.3254 25.6599 31.326 25.6599 31.3266 25.6599C31.3272 25.6599 31.3278 25.6599 31.3284 25.6599C31.329 25.6599 31.3296 25.6599 31.3302 25.6599C31.3308 25.6599 31.3314 25.6599 31.332 25.6599C31.3326 25.6599 31.3332 25.6599 31.3338 25.6599C31.3343 25.6599 31.3349 25.6599 31.3355 25.6599C31.3361 25.6599 31.3367 25.6599 31.3373 25.6599C31.3379 25.6599 31.3385 25.6599 31.3391 25.6599C31.3397 25.6599 31.3403 25.6599 31.3409 25.6599C31.3415 25.6599 31.3421 25.6599 31.3427 25.6599C31.3433 25.6599 31.3439 25.6599 31.3445 25.6599C31.345 25.6599 31.3456 25.6599 31.3462 25.6599C31.3468 25.6599 31.3474 25.6599 31.348 25.6599C31.3486 25.6599 31.3492 25.6599 31.3498 25.6599C31.3504 25.6599 31.351 25.6599 31.3516 25.6599C31.3522 25.6599 31.3528 25.6599 31.3534 25.6599C31.354 25.6599 31.3545 25.6599 31.3551 25.6599C31.3557 25.6599 31.3563 25.6599 31.3569 25.6599C31.3575 25.6599 31.3581 25.6599 31.3587 25.6599C31.3593 25.6599 31.3599 25.6599 31.3605 25.6599C31.3611 25.6599 31.3617 25.6599 31.3623 25.6599C31.3629 25.6599 31.3635 25.6599 31.364 25.6599C31.3646 25.6599 31.3652 25.6599 31.3658 25.6599C31.3664 25.6599 31.367 25.6599 31.3676 25.6599C31.3682 25.6599 31.3688 25.6599 31.3694 25.6599C31.37 25.6599 31.3706 25.6599 31.3712 25.6599C31.3718 25.6599 31.3724 25.6599 31.3729 25.6599C31.3735 25.6599 31.3741 25.6599 31.3747 25.6599C31.3753 25.6599 31.3759 25.6599 31.3765 25.6599C31.3771 25.6599 31.3777 25.6599 31.3783 25.6599C31.3789 25.6599 31.3795 25.6599 31.3801 25.6599C31.3807 25.6599 31.3812 25.6599 31.3818 25.6599C31.3824 25.6599 31.383 25.6599 31.3836 25.6599C31.3842 25.6599 31.3848 25.6599 31.3854 25.6599C31.386 25.6599 31.3866 25.6599 31.3872 25.6599C31.3878 25.6599 31.3884 25.6599 31.389 25.6599C31.3895 25.6599 31.3901 25.6599 31.3907 25.6599C31.3913 25.6599 31.3919 25.6599 31.3925 25.6599C31.3931 25.6599 31.3937 25.6599 31.3943 25.6599C31.3949 25.6599 31.3955 25.6599 31.3961 25.6599C31.3967 25.6599 31.3972 25.6599 31.3978 25.6599C31.3984 25.6599 31.399 25.6599 31.3996 25.6599C31.4002 25.6599 31.4008 25.6599 31.4014 25.6599C31.402 25.6599 31.4026 25.6599 31.4032 25.6599C31.4038 25.6599 31.4044 25.6599 31.4049 25.6599C31.4055 25.6599 31.4061 25.6599 31.4067 25.6599C31.4073 25.6599 31.4079 25.6599 31.4085 25.6599C31.4091 25.6599 31.4097 25.6599 31.4103 25.6599C31.4109 25.6599 31.4115 25.6599 31.412 25.6599C31.4126 25.6599 31.4132 25.6599 31.4138 25.6599C31.4144 25.6599 31.415 25.6599 31.4156 25.6599C31.4162 25.6599 31.4168 25.6599 31.4174 25.6599C31.418 25.6599 31.4186 25.6599 31.4191 25.6599C31.4197 25.6599 31.4203 25.6599 31.4209 25.6599C31.4215 25.6599 31.4221 25.6599 31.4227 25.6599C31.4233 25.6599 31.4239 25.6599 31.4245 25.6599C31.4251 25.6599 31.4256 25.6599 31.4262 25.6599C31.4268 25.6599 31.4274 25.6599 31.428 25.6599C31.4286 25.6599 31.4292 25.6599 31.4298 25.6599C31.4304 25.6599 31.431 25.6599 31.4316 25.6599C31.4322 25.6599 31.4327 25.6599 31.4333 25.6599C31.4339 25.6599 31.4345 25.6599 31.4351 25.6599C31.4357 25.6599 31.4363 25.6599 31.4369 25.6599C31.4375 25.6599 31.4381 25.6599 31.4387 25.6599C31.4392 25.6599 31.4398 25.6599 31.4404 25.6599C31.441 25.6599 31.4416 25.6599 31.4422 25.6599C31.4428 25.6599 31.4434 25.6599 31.444 25.6599C31.4446 25.6599 31.4452 25.6599 31.4457 25.6599C31.4463 25.6599 31.4469 25.6599 31.4475 25.6599C31.4481 25.6599 31.4487 25.6599 31.4493 25.6599C31.4499 25.6599 31.4505 25.6599 31.4511 25.6599C31.4516 25.6599 31.4522 25.6599 31.4528 25.6599C31.4534 25.6599 31.454 25.6599 31.4546 25.6599C31.4552 25.6599 31.4558 25.6599 31.4564 25.6599C31.457 25.6599 31.4576 25.6599 31.4581 25.6599C31.4587 25.6599 31.4593 25.6599 31.4599 25.6599C31.4605 25.6599 31.4611 25.6599 31.4617 25.6599C31.4623 25.6599 31.4629 25.6599 31.4635 25.6599C31.464 25.6599 31.4646 25.6599 31.4652 25.6599C31.4658 25.6599 31.4664 25.6599 31.467 25.6599C31.4676 25.6599 31.4682 25.6599 31.4688 25.6599C31.4694 25.6599 31.4699 25.6599 31.4705 25.6599C31.4711 25.6599 31.4717 25.6599 31.4723 25.6599C31.4729 25.6599 31.4735 25.6599 31.4741 25.6599C31.4747 25.6599 31.4753 25.6599 31.4758 25.6599C31.4764 25.6599 31.477 25.6599 31.4776 25.6599C31.4782 25.6599 31.4788 25.6599 31.4794 25.6599C31.48 25.6599 31.4806 25.6599 31.4812 25.6599C31.4817 25.6599 31.4823 25.6599 31.4829 25.6599C31.4835 25.6599 31.4841 25.6599 31.4847 25.6599C31.4853 25.6599 31.4859 25.6599 31.4865 25.6599C31.487 25.6599 31.4876 25.6599 31.4882 25.6599C31.4888 25.6599 31.4894 25.6599 31.49 25.6599C31.4906 25.6599 31.4912 25.6599 31.4918 25.6599C31.4924 25.6599 31.4929 25.6599 31.4935 25.6599C31.4941 25.6599 31.4947 25.6599 31.4953 25.6599C31.4959 25.6599 31.4965 25.6599 31.4971 25.6599C31.4977 25.6599 31.4982 25.6599 31.4988 25.6599C31.4994 25.6599 31.5 25.6599 31.5006 25.6599C31.5012 25.6599 31.5018 25.6599 31.5024 25.6599C31.503 25.6599 31.5036 25.6599 31.5041 25.6599C31.5047 25.6599 31.5053 25.6599 31.5059 25.6599C31.5065 25.6599 31.5071 25.6599 31.5077 25.6599C31.5083 25.6599 31.5089 25.6599 31.5094 25.6599C31.51 25.6599 31.5106 25.6599 31.5112 25.6599C31.5118 25.6599 31.5124 25.6599 31.513 25.6599C31.5136 25.6599 31.5142 25.6599 31.5147 25.6599C31.5153 25.6599 31.5159 25.6599 31.5165 25.6599C31.5171 25.6599 31.5177 25.6599 31.5183 25.6599C31.5189 25.6599 31.5195 25.6599 31.52 25.6599C31.5206 25.6599 31.5212 25.6599 31.5218 25.6599C31.5224 25.6599 31.523 25.6599 31.5236 25.6599C31.5242 25.6599 31.5248 25.6599 31.5253 25.6599C31.5259 25.6599 31.5265 25.6599 31.5271 25.6599C31.5277 25.6599 31.5283 25.6599 31.5289 25.6599C31.5295 25.6599 31.5301 25.6599 31.5306 25.6599C31.5312 25.6599 31.5318 25.6599 31.5324 25.6599C31.533 25.6599 31.5336 25.6599 31.5342 25.6599C31.5348 25.6599 31.5354 25.6599 31.5359 25.6599C31.5365 25.6599 31.5371 25.6599 31.5377 25.6599C31.5383 25.6599 31.5389 25.6599 31.5395 25.6599C31.5401 25.6599 31.5407 25.6599 31.5412 25.6599C31.5418 25.6599 31.5424 25.6599 31.543 25.6599C31.5436 25.6599 31.5442 25.6599 31.5448 25.6599C31.5454 25.6599 31.5459 25.6599 31.5465 25.6599C31.5471 25.6599 31.5477 25.6599 31.5483 25.6599C31.5489 25.6599 31.5495 25.6599 31.5501 25.6599C31.5507 25.6599 31.5512 25.6599 31.5518 25.6599C31.5524 25.6599 31.553 25.6599 31.5536 25.6599C31.5542 25.6599 31.5548 25.6599 31.5554 25.6599C31.556 25.6599 31.5565 25.6599 31.5571 25.6599C31.5577 25.6599 31.5583 25.6599 31.5589 25.6599C31.5595 25.6599 31.5601 25.6599 31.5607 25.6599C31.5612 25.6599 31.5618 25.6599 31.5624 25.6599C31.563 25.6599 31.5636 25.6599 31.5642 25.6599C31.5648 25.6599 31.5654 25.6599 31.566 25.6599C31.5665 25.6599 31.5671 25.6599 31.5677 25.6599C31.5683 25.6599 31.5689 25.6599 31.5695 25.6599C31.5701 25.6599 31.5707 25.6599 31.5712 25.6599C31.5718 25.6599 31.5724 25.6599 31.573 25.6599C31.5736 25.6599 31.5742 25.6599 31.5748 25.6599C31.5754 25.6599 31.5759 25.6599 31.5765 25.6599C31.5771 25.6599 31.5777 25.6599 31.5783 25.6599C31.5789 25.6599 31.5795 25.6599 31.5801 25.6599C31.5807 25.6599 31.5812 25.6599 31.5818 25.6599C31.5824 25.6599 31.583 25.6599 31.5836 25.6599C31.5842 25.6599 31.5848 25.6599 31.5854 25.6599C31.5859 25.6599 31.5865 25.6599 31.5871 25.6599C31.5877 25.6599 31.5883 25.6599 31.5889 25.6599C31.5895 25.6599 31.5901 25.6599 31.5906 25.6599C31.5912 25.6599 31.5918 25.6599 31.5924 25.6599C31.593 25.6599 31.5936 25.6599 31.5942 25.6599C31.5948 25.6599 31.5954 25.6599 31.5959 25.6599C31.5965 25.6599 31.5971 25.6599 31.5977 25.6599C31.5983 25.6599 31.5989 25.6599 31.5995 25.6599C31.6001 25.6599 31.6006 25.6599 31.6012 25.6599C31.6018 25.6599 31.6024 25.6599 31.603 25.6599C31.6036 25.6599 31.6042 25.6599 31.6048 25.6599C31.6053 25.6599 31.6059 25.6599 31.6065 25.6599C31.6071 25.6599 31.6077 25.6599 31.6083 25.6599C31.6089 25.6599 31.6095 25.6599 31.61 25.6599C31.6106 25.6599 31.6112 25.6599 31.6118 25.6599C31.6124 25.6599 31.613 25.6599 31.6136 25.6599C31.6142 25.6599 31.6147 25.6599 31.6153 25.6599C31.6159 25.6599 31.6165 25.6599 31.6171 25.6599C31.6177 25.6599 31.6183 25.6599 31.6189 25.6599C31.6194 25.6599 31.62 25.6599 31.6206 25.6599C31.6212 25.6599 31.6218 25.6599 31.6224 25.6599C31.623 25.6599 31.6236 25.6599 31.6241 25.6599C31.6247 25.6599 31.6253 25.6599 31.6259 25.6599C31.6265 25.6599 31.6271 25.6599 31.6277 25.6599C31.6283 25.6599 31.6289 25.6599 31.6294 25.6599C31.63 25.6599 31.6306 25.6599 31.6312 25.6599C31.6318 25.6599 31.6324 25.6599 31.633 25.6599C31.6336 25.6599 31.6341 25.6599 31.6347 25.6599C31.6353 25.6599 31.6359 25.6599 31.6365 25.6599C31.6371 25.6599 31.6377 25.6599 31.6383 25.6599C31.6388 25.6599 31.6394 25.6599 31.64 25.6599C31.6406 25.6599 31.6412 25.6599 31.6418 25.6599C31.6424 25.6599 31.643 25.6599 31.6435 25.6599C31.6441 25.6599 31.6447 25.6599 31.6453 25.6599C31.6459 25.6599 31.6465 25.6599 31.6471 25.6599C31.6477 25.6599 31.6482 25.6599 31.6488 25.6599C31.6494 25.6599 31.65 25.6599 31.6506 25.6599C31.6512 25.6599 31.6518 25.6599 31.6524 25.6599C31.6529 25.6599 31.6535 25.6599 31.6541 25.6599C31.6547 25.6599 31.6553 25.6599 31.6559 25.6599C31.6565 25.6599 31.6571 25.6599 31.6576 25.6599C31.6582 25.6599 31.6588 25.6599 31.6594 25.6599C31.66 25.6599 31.6606 25.6599 31.6612 25.6599C31.6618 25.6599 31.6623 25.6599 31.6629 25.6599C31.6635 25.6599 31.6641 25.6599 31.6647 25.6599C31.6653 25.6599 31.6659 25.6599 31.6665 25.6599C31.667 25.6599 31.6676 25.6599 31.6682 25.6599C31.6688 25.6599 31.6694 25.6599 31.67 25.6599C31.6706 25.6599 31.6712 25.6599 31.6717 25.6599C31.6723 25.6599 31.6729 25.6599 31.6735 25.6599C31.6741 25.6599 31.6747 25.6599 31.6753 25.6599C31.6759 25.6599 31.6764 25.6599 31.677 25.6599C31.6776 25.6599 31.6782 25.6599 31.6788 25.6599C31.6794 25.6599 31.68 25.6599 31.6806 25.6599C31.6811 25.6599 31.6817 25.6599 31.6823 25.6599C31.6829 25.6599 31.6835 25.6599 31.6841 25.6599C31.6847 25.6599 31.6853 25.6599 31.6858 25.6599C31.6864 25.6599 31.687 25.6599 31.6876 25.6599C31.6882 25.6599 31.6888 25.6599 31.6894 25.6599C31.69 25.6599 31.6905 25.6599 31.6911 25.6599C31.6917 25.6599 31.6923 25.6599 31.6929 25.6599C31.6935 25.6599 31.6941 25.6599 31.6947 25.6599C31.6952 25.6599 31.6958 25.6599 31.6964 25.6599C31.697 25.6599 31.6976 25.6599 31.6982 25.6599C31.6988 25.6599 31.6994 25.6599 31.6999 25.6599C31.7005 25.6599 31.7011 25.6599 31.7017 25.6599C31.7023 25.6599 31.7029 25.6599 31.7035 25.6599C31.7041 25.6599 31.7047 25.6599 31.7052 25.6599C31.7058 25.6599 31.7064 25.6599 31.707 25.6599C31.7076 25.6599 31.7082 25.6599 31.7088 25.6599C31.7094 25.6599 31.7099 25.6599 31.7105 25.6599C31.7111 25.6599 31.7117 25.6599 31.7123 25.6599C31.7129 25.6599 31.7135 25.6599 31.7141 25.6599C31.7146 25.6599 31.7152 25.6599 31.7158 25.6599C31.7164 25.6599 31.717 25.6599 31.7176 25.6599C31.7182 25.6599 31.7188 25.6599 31.7193 25.6599C31.7199 25.6599 31.7205 25.6599 31.7211 25.6599C31.7217 25.6599 31.7223 25.6599 31.7229 25.6599C31.7235 25.6599 31.724 25.6599 31.7246 25.6599C31.7252 25.6599 31.7258 25.6599 31.7264 25.6599C31.727 25.6599 31.7276 25.6599 31.7282 25.6599C31.7288 25.6599 31.7293 25.6599 31.7299 25.6599C31.7305 25.6599 31.7311 25.6599 31.7317 25.6599C31.7323 25.6599 31.7329 25.6599 31.7335 25.6599C31.734 25.6599 31.7346 25.6599 31.7352 25.6599C31.7358 25.6599 31.7364 25.6599 31.737 25.6599C31.7376 25.6599 31.7382 25.6599 31.7387 25.6599C31.7393 25.6599 31.7399 25.6599 31.7405 25.6599C31.7411 25.6599 31.7417 25.6599 31.7423 25.6599C31.7429 25.6599 31.7434 25.6599 31.744 25.6599C31.7446 25.6599 31.7452 25.6599 31.7458 25.6599C31.7464 25.6599 31.747 25.6599 31.7476 25.6599C31.7482 25.6599 31.7487 25.6599 31.7493 25.6599C31.7499 25.6599 31.7505 25.6599 31.7511 25.6599C31.7517 25.6599 31.7523 25.6599 31.7529 25.6599C31.7534 25.6599 31.754 25.6599 31.7546 25.6599C31.7552 25.6599 31.7558 25.6599 31.7564 25.6599C31.757 25.6599 31.7576 25.6599 31.7582 25.6599C31.7587 25.6599 31.7593 25.6599 31.7599 25.6599C31.7605 25.6599 31.7611 25.6599 31.7617 25.6599C31.7623 25.6599 31.7629 25.6599 31.7634 25.6599C31.764 25.6599 31.7646 25.6599 31.7652 25.6599C31.7658 25.6599 31.7664 25.6599 31.767 25.6599C31.7676 25.6599 31.7682 25.6599 31.7687 25.6599C31.7693 25.6599 31.7699 25.6599 31.7705 25.6599C31.7711 25.6599 31.7717 25.6599 31.7723 25.6599C31.7729 25.6599 31.7734 25.6599 31.774 25.6599C31.7746 25.6599 31.7752 25.6599 31.7758 25.6599C31.7764 25.6599 31.777 25.6599 31.7776 25.6599C31.7782 25.6599 31.7787 25.6599 31.7793 25.6599C31.7799 25.6599 31.7805 25.6599 31.7811 25.6599C31.7817 25.6599 31.7823 25.6599 31.7829 25.6599C31.7835 25.6599 31.784 25.6599 31.7846 25.6599C31.7852 25.6599 31.7858 25.6599 31.7864 25.6599C31.787 25.6599 31.7876 25.6599 31.7882 25.6599C31.7887 25.6599 31.7893 25.6599 31.7899 25.6599C31.7905 25.6599 31.7911 25.6599 31.7917 25.6599C31.7923 25.6599 31.7929 25.6599 31.7935 25.6599C31.794 25.6599 31.7946 25.6599 31.7952 25.6599C31.7958 25.6599 31.7964 25.6599 31.797 25.6599C31.7976 25.6599 31.7982 25.6599 31.7988 25.6599C31.7993 25.6599 31.7999 25.6599 31.8005 25.6599C31.8011 25.6599 31.8017 25.6599 31.8023 25.6599C31.8029 25.6599 31.8035 25.6599 31.8041 25.6599C31.8046 25.6599 31.8052 25.6599 31.8058 25.6599C31.8064 25.6599 31.807 25.6599 31.8076 25.6599C31.8082 25.6599 31.8088 25.6599 31.8094 25.6599C31.8099 25.6599 31.8105 25.6599 31.8111 25.6599C31.8117 25.6599 31.8123 25.6599 31.8129 25.6599C31.8135 25.6599 31.8141 25.6599 31.8147 25.6599C31.8152 25.6599 31.8158 25.6599 31.8164 25.6599C31.817 25.6599 31.8176 25.6599 31.8182 25.6599C31.8188 25.6599 31.8194 25.6599 31.82 25.6599C31.8206 25.6599 31.8211 25.6599 31.8217 25.6599C31.8223 25.6599 31.8229 25.6599 31.8235 25.6599C31.8241 25.6599 31.8247 25.6599 31.8253 25.6599C31.8259 25.6599 31.8264 25.6599 31.827 25.6599C31.8276 25.6599 31.8282 25.6599 31.8288 25.6599C31.8294 25.6599 31.83 25.6599 31.8306 25.6599C31.8312 25.6599 31.8317 25.6599 31.8323 25.6599C31.8329 25.6599 31.8335 25.6599 31.8341 25.6599C31.8347 25.6599 31.8353 25.6599 31.8359 25.6599C31.8365 25.6599 31.8371 25.6599 31.8376 25.6599C31.8382 25.6599 31.8388 25.6599 31.8394 25.6599C31.84 25.6599 31.8406 25.6599 31.8412 25.6599C31.8418 25.6599 31.8424 25.6599 31.843 25.6599C31.8435 25.6599 31.8441 25.6599 31.8447 25.6599C31.8453 25.6599 31.8459 25.6599 31.8465 25.6599C31.8471 25.6599 31.8477 25.6599 31.8483 25.6599C31.8489 25.6599 31.8494 25.6599 31.85 25.6599C31.8506 25.6599 31.8512 25.6599 31.8518 25.6599C31.8524 25.6599 31.853 25.6599 31.8536 25.6599C31.8542 25.6599 31.8548 25.6599 31.8553 25.6599C31.8559 25.6599 31.8565 25.6599 31.8571 25.6599C31.8577 25.6599 31.8583 25.6599 31.8589 25.6599C31.8595 25.6599 31.8601 25.6599 31.8607 25.6599C31.8612 25.6599 31.8618 25.6599 31.8624 25.6599C31.863 25.6599 31.8636 25.6599 31.8642 25.6599C31.8648 25.6599 31.8654 25.6599 31.866 25.6599C31.8666 25.6599 31.8671 25.6599 31.8677 25.6599C31.8683 25.6599 31.8689 25.6599 31.8695 25.6599C31.8701 25.6599 31.8707 25.6599 31.8713 25.6599C31.8719 25.6599 31.8725 25.6599 31.8731 25.6599C31.8736 25.6599 31.8742 25.6599 31.8748 25.6599C31.8754 25.6599 31.876 25.6599 31.8766 25.6599C31.8772 25.6599 31.8778 25.6599 31.8784 25.6599C31.879 25.6599 31.8795 25.6599 31.8801 25.6599C31.8807 25.6599 31.8813 25.6599 31.8819 25.6599C31.8825 25.6599 31.8831 25.6599 31.8837 25.6599C31.8843 25.6599 31.8849 25.6599 31.8855 25.6599C31.886 25.6599 31.8866 25.6599 31.8872 25.6599C31.8878 25.6599 31.8884 25.6599 31.889 25.6599C31.8896 25.6599 31.8902 25.6599 31.8908 25.6599C31.8914 25.6599 31.892 25.6599 31.8925 25.6599C31.8931 25.6599 31.8937 25.6599 31.8943 25.6599C31.8949 25.6599 31.8955 25.6599 31.8961 25.6599C31.8967 25.6599 31.8973 25.6599 31.8979 25.6599C31.8985 25.6599 31.8991 25.6599 31.8996 25.6599C31.9002 25.6599 31.9008 25.6599 31.9014 25.6599C31.902 25.6599 31.9026 25.6599 31.9032 25.6599C31.9038 25.6599 31.9044 25.6599 31.905 25.6599C31.9056 25.6599 31.9062 25.6599 31.9067 25.6599C31.9073 25.6599 31.9079 25.6599 31.9085 25.6599C31.9091 25.6599 31.9097 25.6599 31.9103 25.6599C31.9109 25.6599 31.9115 25.6599 31.9121 25.6599C31.9127 25.6599 31.9132 25.6599 31.9138 25.6599C31.9144 25.6599 31.915 25.6599 31.9156 25.6599C31.9162 25.6599 31.9168 25.6599 31.9174 25.6599C31.918 25.6599 31.9186 25.6599 31.9192 25.6599C31.9198 25.6599 31.9204 25.6599 31.9209 25.6599C31.9215 25.6599 31.9221 25.6599 31.9227 25.6599C31.9233 25.6599 31.9239 25.6599 31.9245 25.6599C31.9251 25.6599 31.9257 25.6599 31.9263 25.6599C31.9269 25.6599 31.9275 25.6599 31.9281 25.6599C31.9286 25.6599 31.9292 25.6599 31.9298 25.6599C31.9304 25.6599 31.931 25.6599 31.9316 25.6599C31.9322 25.6599 31.9328 25.6599 31.9334 25.6599C31.934 25.6599 31.9346 25.6599 31.9352 25.6599C31.9358 25.6599 31.9363 25.6599 31.9369 25.6599C31.9375 25.6599 31.9381 25.6599 31.9387 25.6599C31.9393 25.6599 31.9399 25.6599 31.9405 25.6599C31.9411 25.6599 31.9417 25.6599 31.9423 25.6599C31.9429 25.6599 31.9435 25.6599 31.9441 25.6599C31.9446 25.6599 31.9452 25.6599 31.9458 25.6599C31.9464 25.6599 31.947 25.6599 31.9476 25.6599C31.9482 25.6599 31.9488 25.6599 31.9494 25.6599C31.95 25.6599 31.9506 25.6599 31.9512 25.6599C31.9518 25.6599 31.9524 25.6599 31.9529 25.6599C31.9535 25.6599 31.9541 25.6599 31.9547 25.6599C31.9553 25.6599 31.9559 25.6599 31.9565 25.6599C31.9571 25.6599 31.9577 25.6599 31.9583 25.6599C31.9589 25.6599 31.9595 25.6599 31.9601 25.6599C31.9607 25.6599 31.9613 25.6599 31.9618 25.6599C31.9624 25.6599 31.963 25.6599 31.9636 25.6599C31.9642 25.6599 31.9648 25.6599 31.9654 25.6599C31.966 25.6599 31.9666 25.6599 31.9672 25.6599C31.9678 25.6599 31.9684 25.6599 31.969 25.6599C31.9696 25.6599 31.9702 25.6599 31.9708 25.6599C31.9713 25.6599 31.9719 25.6599 31.9725 25.6599C31.9731 25.6599 31.9737 25.6599 31.9743 25.6599C31.9749 25.6599 31.9755 25.6599 31.9761 25.6599C31.9767 25.6599 31.9773 25.6599 31.9779 25.6599C31.9785 25.6599 31.9791 25.6599 31.9797 25.6599C31.9803 25.6599 31.9809 25.6599 31.9815 25.6599C31.982 25.6599 31.9826 25.6599 31.9832 25.6599C31.9838 25.6599 31.9844 25.6599 31.985 25.6599C31.9856 25.6599 31.9862 25.6599 31.9868 25.6599C31.9874 25.6599 31.988 25.6599 31.9886 25.6599C31.9892 25.6599 31.9898 25.6599 31.9904 25.6599C31.991 25.6599 31.9916 25.6599 31.9922 25.6599C31.9928 25.6599 31.9933 25.6599 31.9939 25.6599C31.9945 25.6599 31.9951 25.6599 31.9957 25.6599C31.9963 25.6599 31.9969 25.6599 31.9975 25.6599C31.9981 25.6599 31.9987 25.6599 31.9993 25.6599C31.9999 25.6599 32.0005 25.6599 32.0011 25.6599C32.0017 25.6599 32.0023 25.6599 32.0029 25.6599C32.0035 25.6599 32.0041 25.6599 32.0047 25.6599C32.0052 25.6599 32.0058 25.6599 32.0064 25.6599C32.007 25.6599 32.0076 25.6599 32.0082 25.6599C32.0088 25.6599 32.0094 25.6599 32.01 25.6599C32.0106 25.6599 32.0112 25.6599 32.0118 25.6599C32.0124 25.6599 32.013 25.6599 32.0136 25.6599C32.0142 25.6599 32.0148 25.6599 32.0154 25.6599C32.016 25.6599 32.0166 25.6599 32.0172 25.6599C32.0178 25.6599 32.0184 25.6599 32.0189 25.6599C32.0195 25.6599 32.0201 25.6599 32.0207 25.6599C32.0213 25.6599 32.0219 25.6599 32.0225 25.6599C32.0231 25.6599 32.0237 25.6599 32.0243 25.6599C32.0249 25.6599 32.0255 25.6599 32.0261 25.6599C32.0267 25.6599 32.0273 25.6599 32.0279 25.6599C32.0285 25.6599 32.0291 25.6599 32.0297 25.6599C32.0303 25.6599 32.0309 25.6599 32.0315 25.6599C32.0321 25.6599 32.0327 25.6599 32.0333 25.6599C32.0339 25.6599 32.0345 25.6599 32.0351 25.6599C32.0357 25.6599 32.0362 25.6599 32.0368 25.6599C32.0374 25.6599 32.038 25.6599 32.0386 25.6599C32.0392 25.6599 32.0398 25.6599 32.0404 25.6599C32.041 25.6599 32.0416 25.6599 32.0422 25.6599C32.0428 25.6599 32.0434 25.6599 32.044 25.6599C32.0446 25.6599 32.0452 25.6599 32.0458 25.6599C32.0464 25.6599 32.047 25.6599 32.0476 25.6599C32.0482 25.6599 32.0488 25.6599 32.0494 25.6599C32.05 25.6599 32.0506 25.6599 32.0512 25.6599C32.0518 25.6599 32.0524 25.6599 32.053 25.6599C32.0536 25.6599 32.0542 25.6599 32.0548 25.6599C32.0554 25.6599 32.056 25.6599 32.0566 25.6599C32.0572 25.6599 32.0578 25.6599 32.0584 25.6599C32.059 25.6599 32.0595 25.6599 32.0601 25.6599C32.0607 25.6599 32.0613 25.6599 32.0619 25.6599C32.0625 25.6599 32.0631 25.6599 32.0637 25.6599C32.0643 25.6599 32.0649 25.6599 32.0655 25.6599C32.0661 25.6599 32.0667 25.6599 32.0673 25.6599C32.0679 25.6599 32.0685 25.6599 32.0691 25.6599C32.0697 25.6599 32.0703 25.6599 32.0709 25.6599C32.0715 25.6599 32.0721 25.6599 32.0727 25.6599C32.0733 25.6599 32.0739 25.6599 32.0745 25.6599C32.0751 25.6599 32.0757 25.6599 32.0763 25.6599C32.0769 25.6599 32.0775 25.6599 32.0781 25.6599C32.0787 25.6599 32.0793 25.6599 32.0799 25.6599C32.0805 25.6599 32.0811 25.6599 32.0817 25.6599C32.0823 25.6599 32.0829 25.6599 32.0835 25.6599C32.0841 25.6599 32.0847 25.6599 32.0853 25.6599C32.0859 25.6599 32.0865 25.6599 32.0871 25.6599C32.0877 25.6599 32.0883 25.6599 32.0889 25.6599C32.0895 25.6599 32.0901 25.6599 32.0907 25.6599C32.0913 25.6599 32.0919 25.6599 32.0925 25.6599C32.0931 25.6599 32.0937 25.6599 32.0943 25.6599C32.0949 25.6599 32.0955 25.6599 32.0961 25.6599C32.0967 25.6599 32.0973 25.6599 32.0979 25.6599C32.0985 25.6599 32.0991 25.6599 32.0997 25.6599C32.1003 25.6599 32.1009 25.6599 32.1015 25.6599C32.1021 25.6599 32.1027 25.6599 32.1033 25.6599C32.1039 25.6599 32.1045 25.6599 32.1051 25.6599C32.1057 25.6599 32.1063 25.6599 32.1069 25.6599C32.1075 25.6599 32.1081 25.6599 32.1087 25.6599C32.1093 25.6599 32.1099 25.6599 32.1105 25.6599C32.1111 25.6599 32.1117 25.6599 32.1123 25.6599C32.1129 25.6599 32.1135 25.6599 32.1141 25.6599C32.1147 25.6599 32.1153 25.6599 32.1159 25.6599V21.4099ZM31.2064 21.4099V17.1599C27.4815 17.1599 23.9092 18.6397 21.2753 21.2736L24.2806 24.2788L27.2859 27.2839C28.3257 26.244 29.736 25.6599 31.2064 25.6599V21.4099ZM24.2806 24.2788L21.2753 21.2736C18.6415 23.9076 17.1619 27.48 17.1619 31.2049H21.4119H25.6619C25.6619 29.7342 26.2461 28.3238 27.2859 27.2839L24.2806 24.2788ZM36.1597 38.2014L33.1544 41.2065L33.2243 41.2765L36.2296 38.2714L39.2349 35.2662L39.1649 35.1963L36.1597 38.2014ZM36.2296 38.2714V34.0214H31.2064V38.2714V42.5214H36.2296V38.2714ZM31.2064 38.2714L31.214 34.0214C30.5788 34.0202 29.9636 33.7989 29.4732 33.395L26.7713 36.6756L24.0694 39.9562C26.0776 41.6102 28.5972 42.5167 31.1988 42.5214L31.2064 38.2714ZM26.7713 36.6756L29.4732 33.395C28.9829 32.9911 28.6476 32.4297 28.5247 31.8063L24.355 32.6285L20.1853 33.4507C20.6886 36.0032 22.0612 38.3022 24.0694 39.9562L26.7713 36.6756ZM24.355 32.6285L28.5247 31.8063C28.4018 31.1829 28.4988 30.5362 28.7992 29.9763L25.0542 27.967L21.3091 25.9577C20.0791 28.2502 19.682 30.8982 20.1853 33.4507L24.355 32.6285ZM25.0542 27.967L28.7992 29.9763C29.0996 29.4164 29.5847 28.9781 30.172 28.7359L28.5515 24.8069L26.931 20.878C24.5259 21.87 22.5391 23.6652 21.3091 25.9577L25.0542 27.967ZM28.5515 24.8069L30.172 28.7359C30.7592 28.4937 31.4122 28.4625 32.0198 28.6478L33.2595 24.5827L34.4992 20.5175C32.0107 19.7586 29.3361 19.886 26.931 20.878L28.5515 24.8069ZM33.2595 24.5827L32.0198 28.6478C32.6274 28.8331 33.1521 29.2234 33.5043 29.7521L37.0414 27.396L40.5785 25.0398C39.1361 22.8746 36.9877 21.2764 34.4992 20.5175L33.2595 24.5827ZM37.0414 27.396L33.5043 29.7521C33.8565 30.2809 34.0146 30.9155 33.9514 31.5478L38.1804 31.9699L42.4094 32.3921C42.6678 29.8033 42.0208 27.205 40.5785 25.0398L37.0414 27.396ZM38.1804 31.9699L33.9514 31.5478C33.8883 32.18 33.608 32.7708 33.1582 33.2195L36.1597 36.2284L39.1612 39.2373C41.0031 37.4 42.151 34.9808 42.4094 32.3921L38.1804 31.9699ZM36.1597 36.2284L33.185 33.193C32.1206 34.236 31.5115 35.6573 31.4903 37.1474L35.7399 37.2079L39.9895 37.2684C39.9788 38.0203 39.6714 38.7375 39.1343 39.2639L36.1597 36.2284ZM35.7399 37.2079L31.4899 37.2256C31.493 37.973 31.6444 38.7123 31.9353 39.4008L35.8502 37.7467L39.7651 36.0926C39.9119 36.44 39.9883 36.8131 39.9899 37.1903L35.7399 37.2079ZM35.8502 37.7467L31.9353 39.4008C32.2262 40.0893 32.6509 40.7133 33.1846 41.2365L36.1597 38.2014L39.1347 35.1663C39.4041 35.4304 39.6183 35.7452 39.7651 36.0926L35.8502 37.7467Z" fill="white" mask="url(#path-2-inside-1_1056_387)"/>
<defs>
<linearGradient id="paint0_linear_1056_387" x1="27.0926" y1="83.2768" x2="-42.4452" y2="-18.6875" gradientUnits="userSpaceOnUse">
<stop offset="0.3" stop-color="#00D4DA"/>
<stop offset="1" stop-color="#0A3558"/>
</linearGradient>
</defs>
</svg>
