<svg width="55" height="55" viewBox="0 0 55 55" fill="none" xmlns="http://www.w3.org/2000/svg">
<path d="M36.488 23.8734C34.1908 25.2151 32.1936 26.5693 30.0423 27.5887C28.232 28.4447 27.7574 29.6378 27.8725 31.576C28.0492 34.565 27.9238 37.5706 27.9156 40.5763C27.9156 41.8322 27.7102 42.0876 26.465 41.9767C25.6496 41.9288 24.8517 41.7153 24.1185 41.3487C21.4802 39.8836 18.8851 38.3221 16.3003 36.7543C15.6083 36.3548 15.0338 35.7741 14.6364 35.0722C14.2389 34.3704 14.0331 33.573 14.0401 32.7628C13.9866 29.5925 13.9866 26.4193 14.0401 23.2434C14.0709 21.4391 14.9297 20.0556 16.4708 19.1409C18.9508 17.6757 21.4247 16.1792 23.9253 14.7454C25.7088 13.7219 27.515 13.7595 29.2944 14.8145C31.7477 16.2671 34.2072 17.7071 36.6564 19.1639C37.3838 19.5665 37.9919 20.1604 38.4173 20.8838C38.8426 21.6072 39.0697 22.4336 39.0748 23.2769C39.1324 24.9514 39.0749 26.6258 39.1036 28.3003C39.1242 29.3113 38.5406 29.4034 37.7681 29.4055C36.9462 29.4055 36.453 29.1794 36.4756 28.2271C36.5106 26.8645 36.488 25.5081 36.488 23.8734ZM17.9666 21.3994C18.2995 21.638 18.505 21.818 18.731 21.9415C21.0877 23.346 23.4569 24.719 25.7993 26.157C26.389 26.5191 26.8266 26.471 27.3814 26.1298C29.2841 24.9702 31.2155 23.8567 33.1346 22.718C33.786 22.3308 34.4271 21.9226 35.2366 21.4245C32.9148 20.0619 30.7593 18.9253 28.7457 17.5711C27.1821 16.5245 25.8691 16.581 24.328 17.592C22.3 18.9253 20.1672 20.0933 17.9666 21.3994ZM16.703 23.9278C16.6722 24.4406 16.6352 24.7651 16.6352 25.1042C16.6352 27.4359 16.6639 29.7697 16.6167 32.1014C16.5899 33.3761 17.1509 34.1945 18.1988 34.7889C19.9248 35.7748 21.6282 36.8025 23.3357 37.803C23.8863 38.1211 24.4534 38.41 25.1849 38.8035C25.1849 35.4713 25.2013 32.3484 25.1582 29.2255C25.1582 28.9806 24.7904 28.675 24.5253 28.5117C23.2719 27.7331 22 26.99 20.7261 26.2449C19.4522 25.4997 18.1392 24.7525 16.703 23.9278Z" fill="url(#paint0_linear_1075_1071)"/>
<rect x="0.5" y="-0.5" width="54" height="54" rx="11.5" transform="matrix(1 0 0 -1 0 54)" fill="white" fill-opacity="0.3" stroke="#CACACA"/>
<path d="M34.7397 36.0624C35.7897 34.9384 36.7492 33.9483 37.6656 32.9227C38.2821 32.2278 38.7793 32.3471 39.3792 32.9604C39.9792 33.5737 40.3388 34.0886 39.5436 34.8567C38.1546 36.1984 36.817 37.5945 35.4794 38.9906C34.9472 39.5474 34.4849 39.6185 33.9239 39.0283C32.8582 37.898 31.774 36.7866 30.6713 35.694C29.8864 34.9153 30.5706 34.482 31.0062 33.9755C31.4809 33.4229 31.9925 33.2137 32.574 33.8144C33.2439 34.4988 33.9075 35.1958 34.7397 36.0624Z" fill="url(#paint1_linear_1075_1071)"/>
<defs>
<linearGradient id="paint0_linear_1075_1071" x1="26.3661" y1="56.3955" x2="-10.2799" y2="8.21827" gradientUnits="userSpaceOnUse">
<stop offset="0.3" stop-color="#00D4DA"/>
<stop offset="1" stop-color="#0A3558"/>
</linearGradient>
<linearGradient id="paint1_linear_1075_1071" x1="35.0857" y1="43.0349" x2="27.5632" y2="27.747" gradientUnits="userSpaceOnUse">
<stop offset="0.3" stop-color="#00D4DA"/>
<stop offset="1" stop-color="#0A3558"/>
</linearGradient>
</defs>
</svg>
