<svg width="55" height="55" viewBox="0 0 55 55" fill="none" xmlns="http://www.w3.org/2000/svg">
<rect width="55" height="55" rx="12" transform="matrix(1 0 0 -1 0 55)" fill="url(#paint0_linear_1169_1926)"/>
<path d="M31.625 30.25H23.375C23.0103 30.25 22.6606 30.3949 22.4027 30.6527C22.1449 30.9106 22 31.2603 22 31.625C22 31.9897 22.1449 32.3394 22.4027 32.5973C22.6606 32.8551 23.0103 33 23.375 33H31.625C31.9897 33 32.3394 32.8551 32.5973 32.5973C32.8551 32.3394 33 31.9897 33 31.625C33 31.2603 32.8551 30.9106 32.5973 30.6527C32.3394 30.3949 31.9897 30.25 31.625 30.25ZM31.625 24.75H26.125C25.7603 24.75 25.4106 24.8949 25.1527 25.1527C24.8949 25.4106 24.75 25.7603 24.75 26.125C24.75 26.4897 24.8949 26.8394 25.1527 27.0973C25.4106 27.3551 25.7603 27.5 26.125 27.5H31.625C31.9897 27.5 32.3394 27.3551 32.5973 27.0973C32.8551 26.8394 33 26.4897 33 26.125C33 25.7603 32.8551 25.4106 32.5973 25.1527C32.3394 24.8949 31.9897 24.75 31.625 24.75ZM34.375 16.5H32.7525C32.4688 15.6976 31.9439 15.0026 31.2497 14.5103C30.5555 14.018 29.726 13.7524 28.875 13.75H26.125C25.274 13.7524 24.4445 14.018 23.7503 14.5103C23.0561 15.0026 22.5312 15.6976 22.2475 16.5H20.625C19.531 16.5 18.4818 16.9346 17.7082 17.7082C16.9346 18.4818 16.5 19.531 16.5 20.625V37.125C16.5 38.219 16.9346 39.2682 17.7082 40.0418C18.4818 40.8154 19.531 41.25 20.625 41.25H34.375C35.469 41.25 36.5182 40.8154 37.2918 40.0418C38.0654 39.2682 38.5 38.219 38.5 37.125V20.625C38.5 19.531 38.0654 18.4818 37.2918 17.7082C36.5182 16.9346 35.469 16.5 34.375 16.5V16.5ZM24.75 17.875C24.75 17.5103 24.8949 17.1606 25.1527 16.9027C25.4106 16.6449 25.7603 16.5 26.125 16.5H28.875C29.2397 16.5 29.5894 16.6449 29.8473 16.9027C30.1051 17.1606 30.25 17.5103 30.25 17.875V19.25H24.75V17.875ZM35.75 37.125C35.75 37.4897 35.6051 37.8394 35.3473 38.0973C35.0894 38.3551 34.7397 38.5 34.375 38.5H20.625C20.2603 38.5 19.9106 38.3551 19.6527 38.0973C19.3949 37.8394 19.25 37.4897 19.25 37.125V20.625C19.25 20.2603 19.3949 19.9106 19.6527 19.6527C19.9106 19.3949 20.2603 19.25 20.625 19.25H22V20.625C22 20.9897 22.1449 21.3394 22.4027 21.5973C22.6606 21.8551 23.0103 22 23.375 22H31.625C31.9897 22 32.3394 21.8551 32.5973 21.5973C32.8551 21.3394 33 20.9897 33 20.625V19.25H34.375C34.7397 19.25 35.0894 19.3949 35.3473 19.6527C35.6051 19.9106 35.75 20.2603 35.75 20.625V37.125Z" fill="white"/>
<defs>
<linearGradient id="paint0_linear_1169_1926" x1="27.0926" y1="83.2768" x2="-42.4452" y2="-18.6875" gradientUnits="userSpaceOnUse">
<stop offset="0.3" stop-color="#00D4DA"/>
<stop offset="1" stop-color="#0A3558"/>
</linearGradient>
</defs>
</svg>
