<svg width="55" height="55" viewBox="0 0 55 55" fill="none" xmlns="http://www.w3.org/2000/svg">
<rect x="0.5" y="-0.5" width="54" height="54" rx="11.5" transform="matrix(1 0 0 -1 0 54)" fill="white" fill-opacity="0.3" stroke="#CACACA"/>
<path d="M28.0153 12C30.9818 12.003 33.8808 12.8856 36.3457 14.5361C38.8107 16.1866 40.7309 18.5309 41.8635 21.2727C42.9962 24.0144 43.2905 27.0305 42.7092 29.9395C42.1278 32.8485 40.697 35.5197 38.5976 37.6156C36.4981 39.7114 33.8244 41.1377 30.9145 41.7141C28.0045 42.2905 24.989 41.9911 22.2491 40.8538C19.5093 39.7164 17.1682 37.7923 15.5219 35.3245C13.8756 32.8568 12.998 29.9563 13 26.9898C13.0061 23.0117 14.5908 19.1987 17.4061 16.3881C20.2215 13.5776 24.0372 11.9993 28.0153 12ZM28.0153 14.1447C25.4747 14.1432 22.9906 14.8947 20.8769 16.3042C18.7631 17.7138 17.1145 19.7182 16.1394 22.0642C15.1642 24.4103 14.9062 26.9927 15.398 29.4852C15.8898 31.9778 17.1092 34.2687 18.9023 36.0686C20.6954 37.8685 22.9818 39.0965 25.4725 39.5977C27.9632 40.0988 30.5465 39.8506 32.8962 38.8842C35.2459 37.9179 37.2565 36.2769 38.674 34.1685C40.0915 32.0601 40.8524 29.5789 40.8604 27.0382C40.8638 25.3475 40.5339 23.6727 39.8897 22.1096C39.2454 20.5464 38.2995 19.1255 37.1059 17.9281C35.9123 16.7307 34.4944 15.7802 32.9333 15.131C31.3721 14.4819 29.6984 14.1467 28.0076 14.1447H28.0153Z" fill="url(#paint0_linear_1085_1490)"/>
<path d="M27.9143 18.4766C30.3981 18.5097 32.5402 20.2107 32.9661 22.5568C33.095 23.2228 33.0702 23.9095 32.8934 24.5645C32.7166 25.2195 32.3926 25.8254 31.946 26.3361C31.5559 26.8079 31.0688 27.1981 30.671 27.6698C30.3156 28.1096 29.9959 28.5769 29.7147 29.0673C29.4596 29.4881 29.2862 29.9421 28.7099 29.988C28.0239 30.0441 27.3889 29.9216 26.912 29.3861C26.7633 29.2124 26.6697 28.9985 26.6429 28.7715C26.6161 28.5444 26.6574 28.3145 26.7616 28.111C27.1127 27.287 27.6271 26.5427 28.2738 25.923C28.715 25.4793 29.174 25.0534 29.5897 24.5867C30.5715 23.4825 30.0309 21.9371 28.585 21.626C27.3558 21.371 26.5448 21.9703 26.2286 23.0362C26.1343 23.3576 26.0552 23.6814 25.9736 24.0053C25.9368 24.1992 25.8408 24.3769 25.6987 24.5139C25.5567 24.651 25.3756 24.7405 25.1805 24.7703C24.907 24.8254 24.6273 24.8425 24.3492 24.8213C23.5663 24.7448 23.1353 24.2782 23.0741 23.4851C22.9083 21.4296 24.543 19.2288 26.6647 18.6831C27.0775 18.5934 27.4945 18.5245 27.9143 18.4766Z" fill="url(#paint1_linear_1085_1490)"/>
<path d="M26.5703 32.6949C26.5683 32.3703 26.6626 32.0525 26.8414 31.7816C27.0201 31.5107 27.2752 31.299 27.5743 31.1732C27.8735 31.0474 28.2032 31.0131 28.5218 31.0748C28.8404 31.1365 29.1336 31.2914 29.3641 31.5198C29.5947 31.7482 29.7523 32.0399 29.8169 32.3579C29.8816 32.6759 29.8505 33.006 29.7274 33.3063C29.6044 33.6066 29.395 33.8636 29.1259 34.0449C28.8567 34.2261 28.5397 34.3234 28.2152 34.3244C27.7814 34.3251 27.3649 34.1541 27.0567 33.8488C26.7486 33.5435 26.5737 33.1286 26.5703 32.6949Z" fill="url(#paint2_linear_1085_1490)"/>
<defs>
<linearGradient id="paint0_linear_1085_1490" x1="27.7778" y1="57.4237" x2="-10.1519" y2="1.80679" gradientUnits="userSpaceOnUse">
<stop stop-color="#00D4DA"/>
<stop offset="1" stop-color="#0A3558"/>
</linearGradient>
<linearGradient id="paint1_linear_1085_1490" x1="27.9809" y1="35.9251" x2="12.7688" y2="16.5982" gradientUnits="userSpaceOnUse">
<stop stop-color="#00D4DA"/>
<stop offset="1" stop-color="#0A3558"/>
</linearGradient>
<linearGradient id="paint2_linear_1085_1490" x1="28.1858" y1="36.0105" x2="24.0395" y2="29.9306" gradientUnits="userSpaceOnUse">
<stop stop-color="#00D4DA"/>
<stop offset="1" stop-color="#0A3558"/>
</linearGradient>
</defs>
</svg>
