<svg width="55" height="55" viewBox="0 0 55 55" fill="none" xmlns="http://www.w3.org/2000/svg">
<rect width="55" height="55" rx="12" transform="matrix(1 0 0 -1 0 55)" fill="url(#paint0_linear_1150_1846)"/>
<path d="M38.6623 20.5471C38.5274 20.3799 38.3553 20.245 38.1591 20.1527C37.963 20.0603 37.748 20.0129 37.5303 20.014H21.7684V19.3126C21.7702 18.702 21.9754 18.1085 22.353 17.6224C22.7306 17.1363 23.2598 16.7841 23.8604 16.6192C24.2463 16.9837 24.7574 17.1939 25.2933 17.2084H26.7262C27.2963 17.2084 27.843 16.9867 28.2461 16.5921C28.6491 16.1975 28.8756 15.6623 28.8756 15.1042C28.8756 14.5461 28.6491 14.0109 28.2461 13.6163C27.843 13.2217 27.2963 13 26.7262 13H25.2933C24.9703 13.0004 24.6516 13.0726 24.3612 13.2111C24.0708 13.3496 23.8163 13.5508 23.6168 13.7996C22.2961 14.0328 21.1008 14.7124 20.2393 15.7198C19.3778 16.7273 18.9048 17.9987 18.9026 19.3126V20.014H17.4697C17.252 20.0129 17.037 20.0603 16.8409 20.1527C16.6447 20.245 16.4726 20.3799 16.3377 20.5471C16.1942 20.7137 16.0922 20.9107 16.04 21.1225C15.9878 21.3344 15.9867 21.5552 16.0368 21.7675L16.9252 25.2605C17.1373 26.0651 17.588 26.7902 18.2204 27.3444C18.8528 27.8986 19.6386 28.2571 20.4788 28.3748L21.5965 38.1944H20.3355C19.9555 38.1944 19.591 38.3422 19.3223 38.6053C19.0536 38.8683 18.9026 39.2251 18.9026 39.5972C18.9026 39.9692 19.0536 40.3261 19.3223 40.5891C19.591 40.8522 19.9555 41 20.3355 41H34.6645C35.0445 41 35.409 40.8522 35.6777 40.5891C35.9464 40.3261 36.0974 39.9692 36.0974 39.5972C36.0974 39.2251 35.9464 38.8683 35.6777 38.6053C35.409 38.3422 35.0445 38.1944 34.6645 38.1944H33.4036L34.5212 28.3748C35.3555 28.2484 36.1333 27.8844 36.7576 27.3281C37.3819 26.7717 37.8251 26.0478 38.0318 25.2465L38.9632 21.7675C39.0133 21.5552 39.0122 21.3344 38.96 21.1225C38.9078 20.9107 38.8058 20.7137 38.6623 20.5471ZM30.5091 38.2505H24.4909L23.3732 28.4309H31.6268L30.5091 38.2505ZM35.252 24.5731C35.1735 24.8844 34.9886 25.1599 34.7278 25.3539C34.4671 25.5479 34.1464 25.6486 33.8191 25.6393H21.1379C20.8106 25.6486 20.4899 25.5479 20.2292 25.3539C19.9685 25.1599 19.7835 24.8844 19.705 24.5731L19.3038 22.8196H35.6962L35.252 24.5731Z" fill="white"/>
<defs>
<linearGradient id="paint0_linear_1150_1846" x1="27.0926" y1="83.2768" x2="-42.4452" y2="-18.6875" gradientUnits="userSpaceOnUse">
<stop offset="0.3" stop-color="#00D4DA"/>
<stop offset="1" stop-color="#0A3558"/>
</linearGradient>
</defs>
</svg>
