<svg width="28" height="34" viewBox="0 0 28 34" fill="none" xmlns="http://www.w3.org/2000/svg">
<path d="M0.340024 10.9569C0.480817 4.99638 6.34098 0.338082 13.2212 0.0205246C21.1906 -0.345009 27.5077 4.20589 27.9275 10.9591H23.0741C22.1045 10.9591 21.1322 10.9157 20.1732 10.9888C19.1106 11.0711 18.3137 11.4937 18.3934 12.4533C18.4757 13.3305 19.2833 13.6961 20.2821 13.728C21.8282 13.776 23.3796 13.7281 24.9283 13.7441C26.7745 13.7441 27.9646 14.4637 27.9992 15.5854C28.0364 16.746 26.817 17.4976 24.8699 17.5022C23.3689 17.5022 21.8707 17.4862 20.3698 17.5022C19.1824 17.5022 18.3588 17.9271 18.404 18.9187C18.4465 19.8508 19.278 20.2003 20.3937 20.198C22.2798 20.198 24.1686 20.2254 26.0546 20.1843C27.0189 20.1637 27.3829 20.3808 27.436 21.2078C27.5795 24.3857 27.2261 27.4082 24.5378 30.0332C21.0844 33.4029 15.4128 34.8125 9.92723 33.5331C4.99151 32.3909 1.22994 28.7355 0.807565 24.5684C0.685367 23.3667 0.850073 22.1468 0.828821 20.9359C0.828821 20.2871 1.26447 20.1889 1.93125 20.1934C3.5756 20.1934 5.21996 20.1934 6.86697 20.1934C8.87792 20.1934 9.78908 19.7708 9.82096 18.8227C9.8369 17.9089 8.94698 17.509 6.83509 17.5068C5.48029 17.5068 4.1255 17.525 2.7707 17.5068C1.25917 17.4908 0.00266077 16.6249 4.30436e-06 15.6288C-0.00265216 14.6328 1.22462 13.7601 2.74412 13.7463C4.33801 13.7463 5.93189 13.7601 7.52577 13.7463C8.90182 13.7326 9.8555 13.1775 9.7758 12.3893C9.66955 11.3475 8.71321 10.9888 7.54702 10.9729C5.19074 10.934 2.82382 10.9569 0.340024 10.9569Z" fill="#01D4DA"/>
</svg>
