<svg width="55" height="55" viewBox="0 0 55 55" fill="none" xmlns="http://www.w3.org/2000/svg">
<rect width="55" height="55" rx="12" transform="matrix(1 0 0 -1 0 55)" fill="url(#paint0_linear_1150_1845)"/>
<path d="M35.25 13H21.5C20.0413 13 18.6424 13.59 17.6109 14.6402C16.5795 15.6904 16 17.1148 16 18.6V35.4C16 36.8852 16.5795 38.3096 17.6109 39.3598C18.6424 40.41 20.0413 41 21.5 41H35.25C35.9793 41 36.6788 40.705 37.1945 40.1799C37.7103 39.6548 38 38.9426 38 38.2V15.8C38 15.0574 37.7103 14.3452 37.1945 13.8201C36.6788 13.295 35.9793 13 35.25 13ZM18.75 18.6C18.75 17.8574 19.0397 17.1452 19.5555 16.6201C20.0712 16.095 20.7707 15.8 21.5 15.8H35.25V29.8H21.5C20.5307 29.8041 19.5805 30.075 18.75 30.584V18.6ZM21.5 38.2C20.7707 38.2 20.0712 37.905 19.5555 37.3799C19.0397 36.8548 18.75 36.1426 18.75 35.4C18.75 34.6574 19.0397 33.9452 19.5555 33.4201C20.0712 32.895 20.7707 32.6 21.5 32.6H35.25V38.2H21.5ZM24.25 21.4H29.75C30.1147 21.4 30.4644 21.2525 30.7223 20.9899C30.9801 20.7274 31.125 20.3713 31.125 20C31.125 19.6287 30.9801 19.2726 30.7223 19.0101C30.4644 18.7475 30.1147 18.6 29.75 18.6H24.25C23.8853 18.6 23.5356 18.7475 23.2777 19.0101C23.0199 19.2726 22.875 19.6287 22.875 20C22.875 20.3713 23.0199 20.7274 23.2777 20.9899C23.5356 21.2525 23.8853 21.4 24.25 21.4Z" fill="white"/>
<defs>
<linearGradient id="paint0_linear_1150_1845" x1="27.0926" y1="83.2768" x2="-42.4452" y2="-18.6875" gradientUnits="userSpaceOnUse">
<stop offset="0.3" stop-color="#00D4DA"/>
<stop offset="1" stop-color="#0A3558"/>
</linearGradient>
</defs>
</svg>
