<svg width="55" height="55" viewBox="0 0 55 55" fill="none" xmlns="http://www.w3.org/2000/svg">
<rect x="0.5" y="-0.5" width="54" height="54" rx="11.5" transform="matrix(1 0 0 -1 0 54)" fill="white" fill-opacity="0.3" stroke="#CACACA"/>
<path d="M41.3344 25.4506C39.8127 24.6221 37.7674 24.026 35.5156 23.7457V22.7422C35.5156 21.0852 34.2059 19.584 31.8242 18.5135C29.6586 17.5373 26.793 17 23.7578 17C20.7227 17 17.857 17.5373 15.6914 18.5135C13.3098 19.584 12 21.0852 12 22.7422V28.2109C12 29.868 13.3098 31.3691 15.6914 32.4396C17.1256 33.085 18.8646 33.5334 20.75 33.7699V34.7734C20.75 36.4305 22.0598 37.9316 24.4414 39.0021C26.607 39.9783 29.4727 40.5156 32.5078 40.5156C35.543 40.5156 38.4086 39.9783 40.5742 39.0021C42.9518 37.9316 44.2656 36.4305 44.2656 34.7734V29.3047C44.2656 27.8486 43.2252 26.4801 41.3344 25.4506ZM40.5496 26.8916C41.8881 27.6203 42.625 28.4844 42.625 29.3047C42.625 31.2447 38.4701 33.4062 32.5078 33.4062C31.5383 33.4068 30.5697 33.3456 29.608 33.223C30.3659 33.0196 31.1068 32.7577 31.8242 32.4396C34.2018 31.3691 35.5156 29.868 35.5156 28.2109V25.3986C37.4844 25.6625 39.248 26.182 40.5496 26.8916ZM25.4203 32.2551C24.8844 32.292 24.3266 32.3125 23.7578 32.3125C23.0332 32.3125 22.3359 32.2797 21.6687 32.2209C21.6519 32.2193 21.635 32.2193 21.6182 32.2209C21.1287 32.1758 20.6611 32.1156 20.2031 32.0432V28.2273C21.3801 28.3998 22.5682 28.4857 23.7578 28.4844C24.9474 28.4857 26.1355 28.3998 27.3125 28.2273V32.0391C26.7191 32.1334 26.0943 32.2059 25.4408 32.2523L25.4203 32.2551ZM33.875 25.735V28.2109C33.875 29.5152 31.9951 30.918 28.9531 31.6986V27.917C29.9383 27.6946 30.8998 27.3777 31.8242 26.9709C32.5595 26.6516 33.2492 26.2359 33.875 25.735ZM23.7578 18.6406C29.7201 18.6406 33.875 20.8021 33.875 22.7422C33.875 24.6822 29.7201 26.8438 23.7578 26.8438C17.7955 26.8438 13.6406 24.6822 13.6406 22.7422C13.6406 20.8021 17.7955 18.6406 23.7578 18.6406ZM13.6406 28.2109V25.735C14.2668 26.234 14.9564 26.6478 15.6914 26.9654C16.6158 27.3723 17.5773 27.6891 18.5625 27.9115V31.6932C15.5205 30.918 13.6406 29.5152 13.6406 28.2109ZM22.3906 34.7734V33.9148C22.8418 33.9395 23.2971 33.9531 23.7578 33.9531C24.2965 33.9531 24.8279 33.9363 25.352 33.9025C25.9932 34.134 26.6479 34.3262 27.3125 34.4781V38.2611C24.2705 37.4805 22.3906 36.0777 22.3906 34.7734ZM28.9531 38.6016V34.7871C30.1301 34.9605 31.3182 35.0473 32.5078 35.0469C33.6974 35.0482 34.8855 34.9623 36.0625 34.7898V38.6016C33.7067 38.9661 31.3089 38.9661 28.9531 38.6016ZM37.7031 38.2611V34.4795C38.6883 34.2571 39.6498 33.9402 40.5742 33.5334C41.3092 33.2158 41.9988 32.802 42.625 32.3029V34.7734C42.625 36.0777 40.7451 37.4805 37.7031 38.2611Z" fill="url(#paint0_linear_1085_1489)"/>
<defs>
<linearGradient id="paint0_linear_1085_1489" x1="27.8938" y1="52.6056" x2="2.43631" y2="1.3871" gradientUnits="userSpaceOnUse">
<stop stop-color="#00D4DA"/>
<stop offset="1" stop-color="#0A3558"/>
</linearGradient>
</defs>
</svg>
