<svg width="130" height="130" viewBox="0 0 130 130" fill="none" xmlns="http://www.w3.org/2000/svg">
<path d="M40.6238 32.5007C39.0168 32.5007 37.4459 32.9773 36.1098 33.8701C34.7736 34.7628 33.7322 36.0318 33.1173 37.5164C32.5023 39.0011 32.3414 40.6348 32.6549 42.2109C32.9684 43.7869 33.7422 45.2347 34.8785 46.371C36.0148 47.5073 37.4626 48.2811 39.0387 48.5946C40.6148 48.9081 42.2484 48.7472 43.7331 48.1323C45.2177 47.5173 46.4867 46.4759 47.3795 45.1397C48.2723 43.8036 48.7488 42.2327 48.7488 40.6257C48.7488 38.4709 47.8928 36.4042 46.369 34.8805C44.8453 33.3568 42.7787 32.5007 40.6238 32.5007ZM114.399 58.0132L68.8446 12.4049C68.3385 11.9029 67.7382 11.5057 67.0783 11.2361C66.4183 10.9666 65.7117 10.83 64.9988 10.8341H16.2488C14.8122 10.8341 13.4344 11.4048 12.4186 12.4206C11.4028 13.4364 10.8321 14.8142 10.8321 16.2507V65.0007C10.828 65.7136 10.9646 66.4203 11.2342 67.0802C11.5038 67.7402 11.9009 68.3404 12.403 68.8466L58.0113 114.401C61.0582 117.444 65.1884 119.153 69.4946 119.153C73.8009 119.153 77.9311 117.444 80.978 114.401L114.399 81.2507C117.442 78.2039 119.151 74.0737 119.151 69.7674C119.151 65.4612 117.442 61.331 114.399 58.2841V58.0132ZM106.761 73.2882L73.2863 106.709C72.2714 107.718 70.8985 108.284 69.4675 108.284C68.0365 108.284 66.6637 107.718 65.6488 106.709L21.6655 62.7799V21.6674H62.778L106.761 65.6507C107.263 66.1569 107.66 66.7571 107.93 67.4171C108.2 68.077 108.336 68.7837 108.332 69.4966C108.326 70.9176 107.762 72.2793 106.761 73.2882Z" fill="#F8FAFC"/>
</svg>
