<svg width="55" height="55" viewBox="0 0 55 55" fill="none" xmlns="http://www.w3.org/2000/svg">
<rect width="55" height="55" rx="12" transform="matrix(1 0 0 -1 0 55)" fill="url(#paint0_linear_1056_409)"/>
<path d="M35.75 15.5H18.25C17.2554 15.5 16.3016 15.8951 15.5983 16.5983C14.8951 17.3016 14.5 18.2554 14.5 19.25V36.75C14.5 37.7446 14.8951 38.6984 15.5983 39.4017C16.3016 40.1049 17.2554 40.5 18.25 40.5H35.75C36.7446 40.5 37.6984 40.1049 38.4017 39.4017C39.1049 38.6984 39.5 37.7446 39.5 36.75V19.25C39.5 18.2554 39.1049 17.3016 38.4017 16.5983C37.6984 15.8951 36.7446 15.5 35.75 15.5ZM24.5 18H29.5V21.9125L27.6875 20.6625C27.4834 20.5281 27.2444 20.4565 27 20.4565C26.7556 20.4565 26.5166 20.5281 26.3125 20.6625L24.5 21.9125V18ZM37 36.75C37 37.0815 36.8683 37.3995 36.6339 37.6339C36.3995 37.8683 36.0815 38 35.75 38H18.25C17.9185 38 17.6005 37.8683 17.3661 37.6339C17.1317 37.3995 17 37.0815 17 36.75V19.25C17 18.9185 17.1317 18.6005 17.3661 18.3661C17.6005 18.1317 17.9185 18 18.25 18H22V24.25C22.0006 24.4761 22.0625 24.6979 22.1792 24.8916C22.2959 25.0853 22.4629 25.2437 22.6625 25.35C22.858 25.4504 23.0764 25.4974 23.2959 25.4865C23.5153 25.4755 23.728 25.4069 23.9125 25.2875L27 23.25L30.0625 25.2875C30.2505 25.4113 30.4684 25.4821 30.6933 25.4923C30.9182 25.5025 31.1416 25.4518 31.3401 25.3455C31.5385 25.2392 31.7046 25.0814 31.8208 24.8885C31.9369 24.6957 31.9988 24.4751 32 24.25V18H35.75C36.0815 18 36.3995 18.1317 36.6339 18.3661C36.8683 18.6005 37 18.9185 37 19.25V36.75Z" fill="white"/>
<defs>
<linearGradient id="paint0_linear_1056_409" x1="27.0926" y1="83.2768" x2="-42.4452" y2="-18.6875" gradientUnits="userSpaceOnUse">
<stop offset="0.3" stop-color="#00D4DA"/>
<stop offset="1" stop-color="#0A3558"/>
</linearGradient>
</defs>
</svg>
