<svg width="55" height="55" viewBox="0 0 55 55" fill="none" xmlns="http://www.w3.org/2000/svg">
<rect width="55" height="55" rx="12" transform="matrix(1 0 0 -1 0 55)" fill="url(#paint0_linear_1056_377)"/>
<path d="M15.0206 25.536C15.0206 23.271 15.0021 21.0061 15.0206 18.737C15.0473 16.0875 16.9093 14.0627 19.4825 14.0414C23.9644 13.9862 28.4482 13.9862 32.9341 14.0414C34.0819 14.0365 35.1862 14.4954 36.0113 15.3202C36.8364 16.145 37.3172 17.2705 37.3509 18.4565C37.4414 20.5408 37.3858 22.6315 37.3653 24.7201C37.3653 24.9623 37.2276 25.3426 37.0652 25.4042C36.9028 25.4658 36.6069 25.2342 36.3706 25.1344C34.8353 24.497 34.5887 23.2222 34.7552 21.7009C34.818 20.7814 34.818 19.8584 34.7552 18.9388C34.7161 17.5854 33.9228 16.7355 32.6362 16.7292C28.3558 16.7122 24.076 16.7122 19.7969 16.7292C18.4507 16.7292 17.6246 17.6003 17.6205 18.9898C17.6068 23.3808 17.6068 27.7718 17.6205 32.1628C17.6205 33.5481 18.4426 34.4214 19.7785 34.4596C21.0445 34.4936 22.3146 34.517 23.5786 34.4596C24.4439 34.415 25.0975 34.568 25.4612 35.4879C25.6897 35.9714 25.9529 36.4366 26.2484 36.8796C25.7073 37.0102 25.1578 37.1004 24.6042 37.1494C23.0998 37.1877 21.5933 37.1707 20.0826 37.1494C16.7634 37.1261 15.0041 35.3073 15 31.9036C15 29.7789 15 27.6543 15 25.5296L15.0206 25.536Z" fill="white"/>
<path d="M36.2118 41.1624C35.4986 40.7651 34.7731 40.542 34.2901 40.064C32.4013 38.2197 30.5516 36.3288 28.7656 34.3783C28.2777 33.7967 27.9292 33.1045 27.7483 32.3577C27.4484 31.1252 27.2123 29.8769 27.0412 28.6183C26.9736 28.2695 26.9894 27.9088 27.087 27.5677C27.1846 27.2265 27.3612 26.9151 27.6015 26.6604C27.8418 26.4057 28.1385 26.2154 28.466 26.106C28.7934 25.9966 29.1418 25.9714 29.4808 26.0326C30.7671 26.2167 32.0401 26.4893 33.2913 26.8484C33.9704 27.0771 34.5893 27.4646 35.0999 27.9809C36.927 29.789 38.6966 31.663 40.4765 33.5221C41.687 34.7969 41.6911 36.2842 40.4949 37.5462C39.6831 38.3961 38.894 39.2969 38.0164 40.0831C37.5293 40.5208 36.8818 40.7715 36.2118 41.1624ZM35.9672 38.1475L38.7357 35.481C36.997 33.7175 35.2788 32.0114 33.5976 30.2628C32.5412 29.1601 31.1682 29.2833 29.8734 28.9328C29.9618 31.0574 30.5969 32.7019 32.1219 34.0469C33.5379 35.294 34.73 36.8089 35.9672 38.1475Z" fill="white"/>
<path d="M26.5226 19.5671C26.9357 19.5833 27.327 19.7627 27.6161 20.0682C27.9051 20.3737 28.0699 20.7822 28.0764 21.2095C28.0721 21.428 28.0258 21.6435 27.9402 21.8434C27.8547 22.0433 27.7315 22.2236 27.578 22.374C27.4245 22.5243 27.2437 22.6416 27.046 22.7191C26.8483 22.7967 26.6376 22.8328 26.4263 22.8255C26.2149 22.8182 26.0072 22.7675 25.8149 22.6765C25.6227 22.5855 25.4498 22.4559 25.3064 22.2953C25.163 22.1347 25.0518 21.9463 24.9794 21.7409C24.907 21.5355 24.8747 21.3173 24.8845 21.099C24.914 20.6746 25.1009 20.2784 25.4061 19.993C25.7113 19.7076 26.1112 19.555 26.5226 19.5671Z" fill="white"/>
<path d="M23.2283 21.2088C23.2351 21.4205 23.2014 21.6315 23.1291 21.8296C23.0568 22.0278 22.9473 22.2092 22.8069 22.3634C22.6665 22.5176 22.498 22.6416 22.311 22.7283C22.1241 22.8149 21.9224 22.8625 21.7176 22.8682C21.505 22.8696 21.2943 22.8277 21.0974 22.7448C20.9005 22.662 20.7214 22.5398 20.5702 22.3853C20.419 22.2307 20.2987 22.0469 20.2163 21.8444C20.1339 21.6418 20.091 21.4244 20.0899 21.2046C20.087 20.7793 20.2451 20.3696 20.5304 20.0631C20.8158 19.7566 21.2057 19.5776 21.617 19.5643C22.5439 19.5219 23.218 20.2166 23.2283 21.2088Z" fill="white"/>
<path d="M23.6461 26.808C23.6194 27.3349 23.5947 27.7832 23.5618 28.3951C22.7609 28.4303 21.9587 28.4175 21.1592 28.3569C20.9537 28.3335 20.6639 27.8214 20.6804 27.5495C20.6968 27.2775 21.0359 26.8696 21.2681 26.842C22.0596 26.7856 22.8535 26.7743 23.6461 26.808Z" fill="white"/>
<defs>
<linearGradient id="paint0_linear_1056_377" x1="27.0926" y1="83.2768" x2="-42.4452" y2="-18.6875" gradientUnits="userSpaceOnUse">
<stop offset="0.3" stop-color="#00D4DA"/>
<stop offset="1" stop-color="#0A3558"/>
</linearGradient>
</defs>
</svg>
