<svg xmlns="http://www.w3.org/2000/svg" width="54" height="54" fill="none" viewBox="0 0 54 54"><path fill="url(#paint0_linear_1051_589)" d="M27 11.25C23.885 11.25 20.8399 12.1737 18.2498 13.9044C15.6597 15.635 13.641 18.0948 12.4489 20.9727C11.2568 23.8507 10.9449 27.0175 11.5526 30.0727C12.1604 33.1279 13.6604 35.9343 15.8631 38.1369C18.0658 40.3396 20.8721 41.8397 23.9273 42.4474C26.9825 43.0551 30.1493 42.7432 33.0273 41.5511C35.9052 40.359 38.365 38.3403 40.0957 35.7502C41.8263 33.1602 42.75 30.1151 42.75 27C42.75 22.8228 41.0906 18.8168 38.1369 15.8631C35.1832 12.9094 31.1772 11.25 27 11.25V11.25ZM27 38.25C24.775 38.25 22.5999 37.5902 20.7498 36.354C18.8998 35.1179 17.4579 33.3609 16.6064 31.3052C15.7549 29.2495 15.5321 26.9875 15.9662 24.8052C16.4003 22.6229 17.4717 20.6184 19.0451 19.045C20.6184 17.4717 22.623 16.4002 24.8052 15.9662C26.9875 15.5321 29.2495 15.7549 31.3052 16.6064C33.3609 17.4578 35.1179 18.8998 36.354 20.7498C37.5902 22.5999 38.25 24.775 38.25 27C38.25 29.9837 37.0647 32.8452 34.955 34.955C32.8452 37.0647 29.9837 38.25 27 38.25V38.25ZM27 20.25C25.665 20.25 24.3599 20.6459 23.2499 21.3876C22.1399 22.1293 21.2747 23.1835 20.7638 24.4169C20.2529 25.6503 20.1193 27.0075 20.3797 28.3169C20.6402 29.6262 21.283 30.829 22.227 31.773C23.171 32.717 24.3738 33.3599 25.6831 33.6203C26.9925 33.8808 28.3497 33.7471 29.5831 33.2362C30.8165 32.7253 31.8707 31.8601 32.6124 30.7501C33.3541 29.6401 33.75 28.335 33.75 27C33.75 25.2098 33.0388 23.4929 31.773 22.227C30.5071 20.9612 28.7902 20.25 27 20.25ZM27 29.25C26.555 29.25 26.12 29.118 25.75 28.8708C25.38 28.6236 25.0916 28.2722 24.9213 27.861C24.751 27.4499 24.7064 26.9975 24.7932 26.561C24.8801 26.1246 25.0944 25.7237 25.409 25.409C25.7237 25.0943 26.1246 24.88 26.5611 24.7932C26.9975 24.7064 27.4499 24.751 27.861 24.9213C28.2722 25.0916 28.6236 25.38 28.8708 25.75C29.118 26.12 29.25 26.555 29.25 27C29.25 27.5967 29.013 28.169 28.591 28.591C28.169 29.0129 27.5967 29.25 27 29.25ZM27 2.25C22.1049 2.25 17.3198 3.70156 13.2496 6.42113C9.17953 9.14069 6.00726 13.0061 4.13399 17.5286C2.26072 22.0511 1.77059 27.0275 2.72558 31.8285C3.68056 36.6295 6.03777 41.0395 9.49912 44.5009C12.9605 47.9622 17.3705 50.3194 22.1715 51.2744C26.9726 52.2294 31.949 51.7393 36.4714 49.866C40.9939 47.9927 44.8593 44.8205 47.5789 40.7504C50.2984 36.6802 51.75 31.8951 51.75 27C51.75 20.4359 49.1424 14.1406 44.5009 9.49911C39.8594 4.85758 33.5641 2.25 27 2.25V2.25ZM27 47.25C22.9949 47.25 19.0798 46.0624 15.7497 43.8373C12.4196 41.6122 9.82412 38.4495 8.29145 34.7493C6.75878 31.0491 6.35776 26.9775 7.13911 23.0494C7.92046 19.1213 9.84908 15.5131 12.6811 12.6811C15.5131 9.84907 19.1213 7.92045 23.0494 7.1391C26.9775 6.35775 31.0491 6.75876 34.7493 8.29144C38.4496 9.82411 41.6122 12.4196 43.8373 15.7497C46.0624 19.0798 47.25 22.9949 47.25 27C47.25 32.3706 45.1165 37.5213 41.3189 41.3189C37.5213 45.1165 32.3706 47.25 27 47.25V47.25Z"/><defs><linearGradient id="paint0_linear_1051_589" x1="26.633" x2="-35.951" y1="77.199" y2="-14.569" gradientUnits="userSpaceOnUse"><stop offset=".3" stop-color="#00D4DA"/><stop offset="1" stop-color="#0A3558"/></linearGradient></defs></svg>