<svg xmlns="http://www.w3.org/2000/svg" width="42" height="52" fill="none" viewBox="0 0 42 52"><path fill="url(#paint0_linear_1051_604)" d="M12.7582 17.3833L12.7529 17.3876L12.7479 17.3925L12.7582 17.3833ZM35.9844 16.9448C35.822 16.7872 35.6419 16.6493 35.4477 16.5339C35.1728 16.3709 34.8676 16.2664 34.5511 16.227C34.2345 16.1875 33.9133 16.2139 33.6072 16.3045C33.3012 16.3951 33.0168 16.5479 32.7718 16.7536C32.5267 16.9593 32.3261 17.2135 32.1824 17.5004C31.3787 19.0959 30.2701 20.5157 28.9204 21.6785C29.1268 20.5069 29.2309 19.3193 29.2315 18.1294C29.2358 14.5094 28.2879 10.9529 26.4843 7.82207C24.6807 4.69119 22.0859 2.09773 18.9639 0.305758C18.62 0.109344 18.2322 0.00417537 17.8369 0.000121791C17.4416 -0.00393179 17.0517 0.093262 16.7039 0.282583C16.3561 0.471905 16.0617 0.747147 15.8484 1.08248C15.6351 1.41782 15.5099 1.80225 15.4844 2.19971C15.3539 4.42867 14.7755 6.60771 13.7843 8.60481C12.7932 10.6019 11.41 12.3755 9.71838 13.8181L9.18062 14.2589C7.41176 15.458 5.84605 16.9362 4.5436 18.6368C2.519 21.2064 1.11651 24.216 0.44734 27.4268C-0.221831 30.6376 -0.139275 33.9613 0.688463 37.1343C1.5162 40.3074 3.06635 43.2425 5.21599 45.7069C7.36562 48.1713 10.0556 50.0972 13.0726 51.332C13.4269 51.4778 13.8113 51.5336 14.192 51.4943C14.5727 51.4551 14.9379 51.3221 15.2555 51.107C15.5731 50.892 15.8333 50.6015 16.0132 50.2612C16.193 49.9209 16.2869 49.5412 16.2867 49.1556C16.285 48.9063 16.2458 48.6586 16.1705 48.421C15.6485 46.4441 15.4981 44.3862 15.7273 42.3535C17.9352 46.549 21.4793 49.8746 25.7898 51.7957C26.3159 52.0328 26.9107 52.0647 27.4589 51.8852C30.8645 50.7778 33.9325 48.8114 36.3714 46.1729C38.8102 43.5344 40.5389 40.3115 41.3932 36.8103C42.2475 33.3092 42.199 29.6461 41.2523 26.1691C40.3056 22.6922 38.4922 19.5168 35.9844 16.9448ZM26.8732 47.1079C24.8393 46.0694 23.0451 44.6112 21.6073 42.8282C20.1694 41.0452 19.1202 38.9773 18.5277 36.7589C18.3468 36.012 18.2068 35.2555 18.1084 34.4931C18.0418 34.0075 17.8262 33.5551 17.4918 33.1991C17.1574 32.843 16.7209 32.6012 16.2434 32.5073C16.0963 32.4781 15.9466 32.4635 15.7967 32.4637C15.3866 32.4636 14.9837 32.5723 14.6287 32.7791C14.2736 32.9859 13.979 33.2833 13.7744 33.6414C11.8384 37.0057 10.8647 40.8443 10.9614 44.7319C9.25865 43.3981 7.83557 41.737 6.77467 39.8451C5.71377 37.9531 5.03614 35.8678 4.78106 33.71C4.52598 31.5522 4.69852 29.3649 5.28868 27.2748C5.87884 25.1847 6.87488 23.2334 8.21908 21.534C9.23971 20.1984 10.471 19.0405 11.8637 18.1065C11.924 18.0673 11.9819 18.0244 12.0369 17.978C12.0369 17.978 12.7292 17.4009 12.7529 17.3877C16.0771 14.5549 18.4415 10.7479 19.5166 6.49725C22.0589 8.86504 23.7541 12.0123 24.339 15.4502C24.9239 18.8882 24.3657 22.4245 22.7511 25.5101C22.5378 25.9219 22.4503 26.388 22.4996 26.8498C22.549 27.3116 22.7329 27.7483 23.0283 28.1049C23.3238 28.4615 23.7174 28.7219 24.1595 28.8533C24.6017 28.9848 25.0726 28.9814 25.5128 28.8435C29.087 27.7148 32.2321 25.5099 34.5248 22.5258C35.9028 24.5764 36.8036 26.9138 37.1603 29.3639C37.517 31.814 37.3202 34.3136 36.5848 36.6765C35.8493 39.0393 34.594 41.2045 32.9125 43.0106C31.231 44.8168 29.1666 46.2173 26.8731 47.1079L26.8732 47.1079Z"/><defs><linearGradient id="paint0_linear_1051_604" x1="20.689" x2="-48.932" y1="78.734" y2="-3.72" gradientUnits="userSpaceOnUse"><stop offset=".3" stop-color="#00D4DA"/><stop offset="1" stop-color="#0A3558"/></linearGradient></defs></svg>