<svg xmlns="http://www.w3.org/2000/svg" width="40" height="50" fill="none" viewBox="0 0 40 50"><path fill="url(#paint0_linear_1051_600)" d="M22.125 29.5H12.2917C11.6397 29.5 11.0144 29.759 10.5534 30.22C10.0923 30.6811 9.83333 31.3063 9.83333 31.9583C9.83333 32.6103 10.0923 33.2356 10.5534 33.6966C11.0144 34.1577 11.6397 34.4167 12.2917 34.4167H22.125C22.777 34.4167 23.4023 34.1577 23.8633 33.6966C24.3243 33.2356 24.5833 32.6103 24.5833 31.9583C24.5833 31.3063 24.3243 30.6811 23.8633 30.22C23.4023 29.759 22.777 29.5 22.125 29.5ZM31.9583 4.91667H29.0575C28.5503 3.48211 27.6118 2.23954 26.3707 1.35931C25.1296 0.479076 23.6466 0.0042763 22.125 0H17.2083C15.6868 0.0042763 14.2038 0.479076 12.9626 1.35931C11.7215 2.23954 10.783 3.48211 10.2758 4.91667H7.375C5.41903 4.91667 3.54317 5.69367 2.16009 7.07675C0.777007 8.45984 0 10.3357 0 12.2917V41.7917C0 43.7476 0.777007 45.6235 2.16009 47.0066C3.54317 48.3897 5.41903 49.1667 7.375 49.1667H31.9583C33.9143 49.1667 35.7902 48.3897 37.1732 47.0066C38.5563 45.6235 39.3333 43.7476 39.3333 41.7917V12.2917C39.3333 10.3357 38.5563 8.45984 37.1732 7.07675C35.7902 5.69367 33.9143 4.91667 31.9583 4.91667ZM14.75 7.375C14.75 6.72301 15.009 6.09772 15.47 5.6367C15.9311 5.17567 16.5563 4.91667 17.2083 4.91667H22.125C22.777 4.91667 23.4023 5.17567 23.8633 5.6367C24.3243 6.09772 24.5833 6.72301 24.5833 7.375V9.83333H14.75V7.375ZM34.4167 41.7917C34.4167 42.4437 34.1577 43.0689 33.6966 43.53C33.2356 43.991 32.6103 44.25 31.9583 44.25H7.375C6.72301 44.25 6.09772 43.991 5.6367 43.53C5.17567 43.0689 4.91667 42.4437 4.91667 41.7917V12.2917C4.91667 11.6397 5.17567 11.0144 5.6367 10.5534C6.09772 10.0923 6.72301 9.83333 7.375 9.83333H9.83333V12.2917C9.83333 12.9437 10.0923 13.5689 10.5534 14.03C11.0144 14.491 11.6397 14.75 12.2917 14.75H27.0417C27.6937 14.75 28.3189 14.491 28.78 14.03C29.241 13.5689 29.5 12.9437 29.5 12.2917V9.83333H31.9583C32.6103 9.83333 33.2356 10.0923 33.6966 10.5534C34.1577 11.0144 34.4167 11.6397 34.4167 12.2917V41.7917ZM27.0417 19.6667H12.2917C11.6397 19.6667 11.0144 19.9257 10.5534 20.3867C10.0923 20.8477 9.83333 21.473 9.83333 22.125C9.83333 22.777 10.0923 23.4023 10.5534 23.8633C11.0144 24.3243 11.6397 24.5833 12.2917 24.5833H27.0417C27.6937 24.5833 28.3189 24.3243 28.78 23.8633C29.241 23.4023 29.5 22.777 29.5 22.125C29.5 21.473 29.241 20.8477 28.78 20.3867C28.3189 19.9257 27.6937 19.6667 27.0417 19.6667Z"/><defs><linearGradient id="paint0_linear_1051_600" x1="19.375" x2="-46.555" y1="74.444" y2="-2.895" gradientUnits="userSpaceOnUse"><stop offset=".3" stop-color="#00D4DA"/><stop offset="1" stop-color="#0A3558"/></linearGradient></defs></svg>