<svg width="66" height="82" viewBox="0 0 66 82" fill="none" xmlns="http://www.w3.org/2000/svg">
<path d="M64.5807 21.9683C64.1961 21.4817 63.7058 21.089 63.1469 20.8202C62.5879 20.5513 61.9751 20.4133 61.3549 20.4167H16.4382V18.375C16.4433 16.5974 17.0282 14.8701 18.1041 13.4551C19.1801 12.0402 20.6883 11.0149 22.3999 10.535C23.4994 11.596 24.9558 12.2077 26.4832 12.25H30.5665C32.191 12.25 33.7489 11.6047 34.8975 10.456C36.0462 9.30737 36.6915 7.74945 36.6915 6.125C36.6915 4.50055 36.0462 2.94263 34.8975 1.79397C33.7489 0.645311 32.191 0 30.5665 0H26.4832C25.5627 0.00126686 24.6544 0.211394 23.8269 0.614556C22.9993 1.01772 22.2741 1.6034 21.7057 2.3275C17.9419 3.00634 14.5357 4.98441 12.0808 7.91695C9.62579 10.8495 8.27772 14.5505 8.27152 18.375V20.4167H4.18819C3.56796 20.4133 2.95512 20.5513 2.39618 20.8202C1.83724 21.089 1.3469 21.4817 0.962356 21.9683C0.553306 22.4532 0.262842 23.0267 0.113998 23.6433C-0.0348461 24.2599 -0.0379762 24.9028 0.104856 25.5208L2.63652 35.6883C3.24101 38.0303 4.52526 40.1408 6.32739 41.754C8.12951 43.3672 10.3689 44.4108 12.7632 44.7533L15.9482 73.3367H12.3549C11.2719 73.3367 10.2333 73.7669 9.4675 74.5326C8.70173 75.2984 8.27152 76.337 8.27152 77.42C8.27152 78.503 8.70173 79.5416 9.4675 80.3073C10.2333 81.0731 11.2719 81.5033 12.3549 81.5033H53.1882C54.2712 81.5033 55.3098 81.0731 56.0755 80.3073C56.8413 79.5416 57.2715 78.503 57.2715 77.42C57.2715 76.337 56.8413 75.2984 56.0755 74.5326C55.3098 73.7669 54.2712 73.3367 53.1882 73.3367H49.5949L52.7799 44.7533C55.1573 44.3856 57.3738 43.3259 59.1528 41.7066C60.9319 40.0872 62.1948 37.9799 62.784 35.6475L65.4382 25.5208C65.581 24.9028 65.5779 24.2599 65.429 23.6433C65.2802 23.0267 64.9897 22.4532 64.5807 21.9683ZM41.3465 73.5H24.1965L21.0115 44.9167H44.5315L41.3465 73.5ZM54.8624 33.6875C54.6388 34.5935 54.1116 35.3956 53.3687 35.9602C52.6257 36.5249 51.7118 36.818 50.779 36.7908H14.6415C13.7087 36.818 12.7948 36.5249 12.0519 35.9602C11.3089 35.3956 10.7818 34.5935 10.5582 33.6875L9.41486 28.5833H56.1282L54.8624 33.6875Z" fill="url(#paint0_linear_1150_1855)"/>
<defs>
<linearGradient id="paint0_linear_1150_1855" x1="32.286" y1="123.406" x2="-76.9148" y2="-5.36082" gradientUnits="userSpaceOnUse">
<stop offset="0.3" stop-color="#00D4DA"/>
<stop offset="1" stop-color="#0A3558"/>
</linearGradient>
</defs>
</svg>
