<svg width="95" height="95" viewBox="0 0 95 95" fill="none" xmlns="http://www.w3.org/2000/svg">
<path d="M81.056 75.4723C83.5206 72.1685 85.212 68.3535 86.0052 64.3087C86.7985 60.264 86.6733 56.0927 85.639 52.1028C84.6047 48.1129 82.6877 44.4061 80.0294 41.256C77.3711 38.106 74.0394 35.5931 70.2801 33.9027C69.4613 29.1917 67.5794 24.7292 64.7775 20.8544C61.9755 16.9797 58.3273 13.7945 54.1099 11.541C49.8924 9.28756 45.2169 8.02502 40.4384 7.84936C35.6599 7.6737 30.9043 8.58954 26.5328 10.5273C22.1613 12.465 18.289 15.3737 15.2101 19.0323C12.1312 22.6909 9.9268 27.0031 8.76428 31.6414C7.60176 36.2796 7.51176 41.1218 8.50111 45.8001C9.49046 50.4783 11.5331 54.8695 14.4739 58.64L9.00735 64.0672C8.46165 64.6202 8.09198 65.3225 7.945 66.0854C7.79801 66.8484 7.8803 67.6377 8.18147 68.3539C8.4765 69.0721 8.97753 69.6869 9.62141 70.1208C10.2653 70.5548 11.0232 70.7884 11.7996 70.7923H34.1772C36.4057 75.4904 39.9192 79.4613 44.311 82.2453C48.7028 85.0293 53.7932 86.5126 58.9931 86.5234H82.5898C83.3662 86.5195 84.1241 86.2859 84.768 85.852C85.4118 85.4181 85.9129 84.8033 86.2079 84.0851C86.5091 83.3689 86.5914 82.5795 86.4444 81.8166C86.2974 81.0537 85.9277 80.3514 85.382 79.7983L81.056 75.4723ZM31.4636 58.9939C31.469 60.3109 31.5741 61.6256 31.7782 62.9267H21.2776L22.6541 61.5895C23.0227 61.2239 23.3153 60.789 23.515 60.3097C23.7146 59.8305 23.8174 59.3164 23.8174 58.7973C23.8174 58.2781 23.7146 57.7641 23.515 57.2848C23.3153 56.8056 23.0227 56.3706 22.6541 56.005C20.45 53.8251 18.7027 51.2276 17.5142 48.3645C16.3257 45.5013 15.72 42.43 15.7324 39.33C15.7324 33.0717 18.2185 27.0698 22.6437 22.6446C27.069 18.2193 33.0709 15.7333 39.3291 15.7333C44.2124 15.7039 48.9821 17.2056 52.9677 20.0273C56.9534 22.849 59.9545 26.8488 61.5494 31.4644C60.6841 31.4644 59.8583 31.4644 58.9931 31.4644C51.6918 31.4644 44.6895 34.3648 39.5268 39.5276C34.364 44.6904 31.4636 51.6926 31.4636 58.9939ZM72.9151 78.6578L73.1117 78.8545H58.9931C54.4441 78.8463 50.0388 77.2614 46.5274 74.3695C43.016 71.4777 40.6158 67.4579 39.7358 62.9949C38.8557 58.5319 39.5502 53.9019 41.7009 49.8935C43.8516 45.8851 47.3255 42.7464 51.5308 41.012C55.7361 39.2776 60.4126 39.0549 64.7637 40.3817C69.1148 41.7085 72.8714 44.5029 75.3933 48.2887C77.9153 52.0745 79.0467 56.6175 78.5948 61.1439C78.143 65.6704 76.1357 69.9001 72.9151 73.1126C72.1741 73.8387 71.75 74.8282 71.7353 75.8656C71.7374 76.3859 71.8428 76.9006 72.0454 77.3799C72.2479 77.8592 72.5435 78.2936 72.9151 78.6578Z" fill="url(#paint0_linear_1057_1884)"/>
<defs>
<linearGradient id="paint0_linear_1057_1884" x1="46.5871" y1="126.982" x2="-52.9072" y2="-18.9154" gradientUnits="userSpaceOnUse">
<stop offset="0.3" stop-color="#00D4DA"/>
<stop offset="1" stop-color="#0A3558"/>
</linearGradient>
</defs>
</svg>
