<svg width="69" height="87" viewBox="0 0 69 87" fill="none" xmlns="http://www.w3.org/2000/svg">
<path d="M60.2513 0.583984H17.3346C12.7818 0.583984 8.41534 2.39261 5.19597 5.61199C1.97659 8.83136 0.167969 13.1978 0.167969 17.7507V69.2507C0.167969 73.8035 1.97659 78.1699 5.19597 81.3893C8.41534 84.6087 12.7818 86.4173 17.3346 86.4173H60.2513C62.5277 86.4173 64.711 85.513 66.3206 83.9033C67.9303 82.2936 68.8346 80.1104 68.8346 77.834V9.16732C68.8346 6.89088 67.9303 4.70767 66.3206 3.09798C64.711 1.4883 62.5277 0.583984 60.2513 0.583984ZM8.7513 17.7507C8.7513 15.4742 9.65562 13.291 11.2653 11.6813C12.875 10.0716 15.0582 9.16732 17.3346 9.16732H60.2513V52.084H17.3346C14.3092 52.0967 11.3434 52.9271 8.7513 54.4873V17.7507ZM17.3346 77.834C15.0582 77.834 12.875 76.9297 11.2653 75.32C9.65562 73.7103 8.7513 71.5271 8.7513 69.2507C8.7513 66.9742 9.65562 64.791 11.2653 63.1813C12.875 61.5716 15.0582 60.6673 17.3346 60.6673H60.2513V77.834H17.3346ZM25.918 26.334H43.0846C44.2229 26.334 45.3145 25.8818 46.1193 25.077C46.9241 24.2721 47.3763 23.1805 47.3763 22.0423C47.3763 20.9041 46.9241 19.8125 46.1193 19.0077C45.3145 18.2028 44.2229 17.7507 43.0846 17.7507H25.918C24.7797 17.7507 23.6881 18.2028 22.8833 19.0077C22.0785 19.8125 21.6263 20.9041 21.6263 22.0423C21.6263 23.1805 22.0785 24.2721 22.8833 25.077C23.6881 25.8818 24.7797 26.334 25.918 26.334V26.334Z" fill="#CACACA"/>
</svg>
